<svg width="2213" height="1880" viewBox="0 0 2213 1880" fill="none" xmlns="http://www.w3.org/2000/svg">
<g opacity="0.32">
<path d="M292.317 1105.58C310.685 1117.27 326.033 1128.03 342.482 1136.81C346.567 1138.97 355.804 1136.52 359.819 1132.94C386.216 1109.38 409.593 1113.29 437.944 1132.69C456.382 1145.3 466.934 1155.99 462.28 1178.2C458.301 1197.2 468.106 1206.12 483.277 1217.14C509.922 1236.46 532.02 1238.34 558.523 1217.99C577.14 1203.67 598.74 1193.12 619.666 1182.11C624.675 1179.48 633.486 1179.23 638.318 1181.89C670.967 1199.83 703.262 1218.45 735.023 1237.95C740.175 1241.12 744.758 1249.71 744.829 1255.86C745.362 1295.51 745.149 1335.19 743.656 1374.84C743.408 1381.91 737.723 1391.4 731.648 1395.23C705.642 1411.61 678.783 1426.64 651.783 1441.38C642.759 1446.29 639.171 1452.11 639.597 1462.38C640.343 1480.68 639.81 1499.04 639.81 1516.81C650.681 1524.02 661.873 1529.63 670.683 1537.84C677.789 1544.45 686.386 1553.9 686.777 1562.43C687.95 1586.69 705.5 1594.04 722.233 1603.18C738.256 1611.95 754.421 1620.48 769.414 1628.47C791.867 1614.4 813.539 1600.26 835.921 1587.33C839.865 1585.06 847.574 1586.26 852.121 1588.61C869.956 1597.88 887.755 1607.44 904.382 1618.63C909.995 1622.4 916.319 1632.02 915.289 1637.71C908.041 1677.39 927.049 1699.42 961.688 1712.53C967.55 1714.77 972.985 1718.18 974.335 1718.85C984.034 1708.94 990.572 1699.7 999.347 1693.77C1018.42 1680.87 1039.24 1670.5 1058.11 1657.32C1064.11 1653.13 1069.83 1643.32 1069.62 1636.25C1068.84 1605.84 1065.32 1575.5 1064.01 1545.05C1063.76 1538.94 1067.2 1530.59 1071.82 1527C1075.59 1524.09 1085.82 1524.34 1089.3 1527.5C1094.17 1531.91 1098.01 1540.4 1097.79 1547.01C1096.8 1576.85 1093.49 1606.62 1092.78 1636.46C1092.64 1643.07 1098.11 1652.1 1103.8 1656.08C1120.21 1667.55 1137.69 1677.71 1155.45 1687.06C1170.84 1695.16 1187.96 1700.84 1177.94 1729.4C1204.13 1713.56 1224.98 1701.69 1244.81 1688.23C1248.64 1685.63 1250.38 1676.4 1249.39 1670.89C1242.96 1636 1259.05 1617.67 1288.75 1600.37C1315.01 1585.06 1334.37 1584.67 1356.65 1602.68C1363.04 1607.86 1371.64 1610.64 1377.25 1616.43C1389.9 1629.5 1401.84 1627.87 1415.58 1618.56C1424.32 1612.63 1434.24 1608.33 1443.76 1603.6C1461.1 1595 1477.15 1587.79 1477.69 1562.67C1478.08 1543.67 1493.28 1529.49 1511.69 1522.95C1522.42 1519.12 1524.16 1513.01 1524.23 1503.09C1524.58 1451.62 1524.8 1451.62 1480.6 1425.18C1463.33 1414.84 1445.53 1405.29 1429.09 1393.81C1423.54 1389.94 1418.32 1381.34 1418.18 1374.73C1417.18 1336.26 1418.04 1297.78 1417.5 1259.31C1417.36 1248.61 1420.52 1242.32 1430.22 1236.85C1460.63 1219.73 1490.73 1202 1520.11 1183.17C1530.3 1176.63 1537.27 1177.2 1547.07 1183.24C1574.25 1200.01 1602 1215.82 1629.74 1231.63C1634.04 1234.08 1640.79 1237.28 1644.13 1235.61C1661.54 1226.87 1678.7 1217.38 1694.72 1206.41C1698.31 1203.95 1698.99 1194.22 1697.92 1188.39C1692.34 1157.73 1705.52 1140.18 1732.2 1125.37C1752.7 1113.96 1768.51 1108.35 1787.27 1125.44C1803.26 1140.01 1819.32 1138.8 1835.94 1125.01C1845.29 1117.27 1856.44 1111.73 1868.17 1104.34C1863.27 1101.07 1860.64 1098.4 1857.47 1097.37C1827.81 1087.74 1819.18 1067.32 1823.23 1037.54C1825.82 1018.32 1824.97 998.464 1823.79 979.031C1822.94 964.891 1828.63 957.714 1840.78 951.746C1860.39 942.082 1879.57 931.353 1897.87 919.451C1903.55 915.757 1908.14 907.194 1909.17 900.267C1910.94 888.116 1908.6 875.362 1909.98 863.105C1910.69 856.817 1915.17 846.336 1918.94 845.91C1930.94 844.453 1932.08 854.365 1931.87 864.029C1931.62 875.255 1932.69 886.589 1931.8 897.744C1930.91 909.291 1934.92 916.254 1945.44 921.619C1965.44 931.815 1985.16 942.686 2004.13 954.694C2009.32 957.999 2014.15 966.17 2014.36 972.281C2015.43 1002.44 2014.36 1032.68 2015.14 1062.84C2015.43 1074.1 2010.74 1079.75 2001.57 1084.97C1977.45 1098.76 1953.43 1112.86 1930.23 1128.14C1920.61 1134.5 1913.39 1134.89 1905.05 1127.57C1894.28 1118.08 1885.33 1121.18 1872.18 1126.72C1831.97 1143.77 1814.27 1171.09 1821.34 1214.36C1823.19 1225.77 1816.97 1232.16 1807.42 1238.24C1758.6 1269.47 1758.6 1270.04 1711.42 1236.04C1703.39 1230.24 1698.21 1230.78 1689.47 1234.12C1660.16 1245.38 1645.7 1262.89 1650.49 1296.68C1654.12 1322.22 1652.05 1348.73 1650.67 1374.7C1650.28 1382.02 1644.98 1391.68 1638.91 1395.59C1613.58 1411.93 1587.32 1426.85 1560.96 1441.53C1549.42 1447.96 1542.56 1455.59 1545.15 1469.52C1545.9 1473.54 1545.58 1477.8 1545.26 1481.92C1543.48 1502.85 1543.95 1519.76 1568.39 1531.59C1589.95 1542.03 1599.65 1565.52 1593.97 1590.92C1588.53 1615.18 1574.21 1633.05 1548.81 1637.92C1523.13 1642.86 1500.57 1636.93 1485.68 1612.95C1484.47 1611.03 1482.66 1609.5 1481.06 1607.72C1454.91 1622.61 1429.62 1637.81 1403.51 1651.56C1393.06 1657.07 1388.05 1663.54 1390.18 1675.12C1394.48 1698.49 1383.4 1710.4 1363.93 1723.68C1333.87 1744.18 1308.36 1747.42 1281.54 1722.16C1264.84 1706.42 1251.02 1712.49 1232.02 1720.98C1191.16 1739.21 1171.01 1765.43 1180.5 1810.8C1182.63 1820.92 1177.48 1826.86 1168.81 1831.9C1143.23 1846.75 1118.43 1862.95 1092.57 1877.27C1086.85 1880.43 1076.48 1880.71 1070.9 1877.59C1044.15 1862.45 1018 1846.15 992.454 1829.06C987.196 1825.54 983.217 1817.19 982.329 1810.58C980.73 1798.36 980.553 1785.61 982.187 1773.39C984.638 1754.81 975.543 1745.6 961.332 1735.27C926.374 1709.83 893.617 1703.22 860.044 1736.54C848.675 1747.84 836.489 1747.74 824.446 1736.65C821.461 1733.88 817.731 1731.57 813.965 1730.04C785.33 1718.28 766.927 1700.73 774.388 1666.24C775.205 1662.47 770.124 1655.36 765.968 1652.91C738.967 1637.1 711.433 1622.18 689.335 1609.85C670.186 1620.65 655.406 1633.41 638.567 1637.53C609.256 1644.71 581.758 1625.88 573.765 1598.34C565.167 1568.75 577.886 1536.28 604.673 1524.77C615.971 1519.9 617.215 1513.58 619.027 1502.67C625.599 1463.02 610.571 1438.22 573.552 1423.73C557.777 1417.54 544.17 1405.93 528.716 1398.64C514.789 1392.07 510.917 1382.59 511.237 1367.88C511.947 1335.33 510.526 1302.76 510.917 1270.21C511.059 1259.2 507.329 1252.98 497.452 1248.26C484.733 1242.15 472.796 1234.4 461.214 1227.76C443.699 1238.81 427.179 1250.35 409.486 1259.73C403.766 1262.75 394.849 1260.83 387.708 1259.55C383.374 1258.77 379.892 1254.05 375.522 1252.52C342.73 1240.97 331.255 1217.6 337.295 1184.49C340.812 1165.3 332.96 1153.15 315.481 1145.55C307.416 1142.03 299.707 1137.2 292.672 1131.9C279.705 1122.13 267.626 1118.12 253.308 1130.27C250.075 1133.01 240.696 1131.83 236.113 1129.13C211.137 1114.5 186.41 1099.33 162.465 1083.09C156.78 1079.22 151.274 1070.66 150.989 1064.05C149.71 1032.71 149.746 1001.31 150.67 969.971C150.847 964.536 156.425 957.359 161.47 954.304C179.127 943.574 197.566 934.053 215.933 924.496C228.048 918.208 235.012 909.895 233.484 895.08C232.276 883.356 232.454 871.347 233.697 859.623C234.194 855.005 239.275 850.919 242.259 846.585C246.132 850.777 252.775 854.65 253.308 859.233C254.836 872.697 252.811 886.553 254.409 899.982C255.191 906.448 259.49 914.655 264.783 917.995C284.785 930.536 305.604 941.94 326.637 952.669C336.087 957.501 338.574 963.861 338.396 973.773C337.97 1003.37 337.792 1033 338.822 1062.56C339.249 1074.99 335.163 1082.38 324.079 1087.6C314.166 1092.26 304.929 1098.44 292.353 1105.72L292.317 1105.58ZM176.178 969.509C196.002 980.665 213.624 991.288 231.992 1000.42C237.498 1003.15 246.309 1004.22 251.461 1001.66C266.169 994.343 279.847 984.893 293.738 976.046C302.62 970.398 302.691 964.003 293.88 958.283C279.065 948.655 264.286 938.991 248.974 930.216C245.989 928.511 239.914 929.648 236.575 931.637C216.928 943.468 197.672 955.938 176.178 969.509ZM388.632 1145.58C395.595 1143.81 402.843 1141.96 410.374 1140.04C398.721 1127.64 389.2 1130.41 363.123 1153.04C393.463 1176.46 408.563 1178.05 423.591 1158.23C411.76 1153.97 400.356 1149.85 388.596 1145.58H388.632ZM549.464 1246.94C550.352 1248.4 551.24 1249.86 552.129 1251.31C578.881 1235.47 605.668 1219.62 632.42 1203.81C631.319 1202 630.218 1200.19 629.116 1198.38C602.577 1214.58 576.003 1230.74 549.464 1246.94ZM1088.06 1670.96C1086.99 1669.11 1085.96 1667.3 1084.9 1665.45C1060.92 1679.84 1036.93 1694.23 1012.95 1708.62C1013.66 1709.83 1014.34 1711.04 1015.05 1712.24L1088.06 1670.93V1670.96ZM1537.05 1201.64C1536.16 1200.26 1535.28 1198.87 1534.39 1197.49C1514.71 1210.38 1495.02 1223.28 1475.34 1236.14C1476.12 1237.39 1476.94 1238.63 1477.72 1239.87L1537.05 1201.64ZM1877.23 958.389C1894.67 950.218 1912.12 942.047 1931.94 932.774C1905.4 925.953 1894.14 950.325 1877.23 958.389Z" fill="#FFFDD0"/>
<path d="M570.817 561.478C524.809 561.478 478.694 561.3 432.58 561.762C427.784 561.798 422.952 567.66 418.333 567.375C409.132 566.807 397.87 566.345 391.723 560.945C387.815 557.499 388.49 540.908 392.541 538.101C399.22 533.482 410.446 534.051 419.612 534.619C427.926 535.152 436.062 540.375 444.304 540.517C482.176 541.156 520.084 540.41 557.956 540.836C568.046 540.943 572.664 537.142 578.597 528.828C587.088 516.927 600.056 508.258 610.856 497.955C614.16 494.793 617.819 491.063 619.027 486.906C620.448 481.968 618.601 476.212 619.525 471.025C625.778 435.356 614.267 409.918 579.45 395.565C573.908 393.291 571.421 383.202 568.01 376.487C567.051 374.604 567.797 371.833 567.726 369.453C566.553 305.61 566.447 305.397 624.356 277.401C629.472 274.914 639.527 275.021 643.186 278.36C672.425 305.29 701.344 306.64 731.329 280.243C732.608 279.107 734.349 278.325 736.019 277.757C767.105 267.205 782.986 247.523 775.596 213.239C773.038 201.408 779.185 194.694 789.985 190.43C798.76 186.984 808.211 183.502 815.138 177.498C837.982 157.71 859.903 161.156 881.184 178.635C901.683 195.44 919.375 191.674 943.072 181.335C974.621 167.586 988.37 149.467 981.726 116.178C972.809 71.5913 989.151 42.672 1032.71 27.04C1050.68 20.574 1066.25 0.358979 1083.19 0.00370551C1099.18 -0.316041 1114.53 20.1477 1131.97 26.294C1175.56 41.6418 1192.26 70.1703 1183.41 115.077C1177.38 145.737 1190.27 163.145 1218.3 178.493C1244.73 192.953 1264.91 200.52 1289.36 178.102C1307.72 161.262 1328.22 158.278 1348.33 176.717C1348.76 177.108 1349.29 177.427 1349.86 177.605C1382.44 187.872 1397.18 208.549 1390.68 243.579C1389.69 248.944 1395.12 258.252 1400.24 261.485C1421.77 274.985 1443.97 287.526 1466.71 298.86C1472.61 301.808 1483.87 302.093 1488.45 298.362C1518.05 274.31 1545.65 271.539 1578.44 294.845C1593.04 305.219 1601.25 312.964 1597.91 330.373C1597.59 332.078 1597.63 333.961 1597.91 335.702C1603.63 373.112 1595.39 402.564 1554.96 415.745C1550.34 417.237 1546.58 426.261 1545.44 432.336C1543.84 440.898 1545.44 450.029 1544.98 458.91C1543.77 479.694 1541.92 499.945 1568.42 508.329C1574.75 510.354 1581.64 518.241 1583.63 524.849C1588.39 540.481 1598.62 541.227 1612.05 540.872C1642.82 540.019 1673.62 541.156 1704.39 540.126C1716.29 539.735 1728.01 534.371 1739.95 533.873C1749.08 533.482 1759.6 535.223 1767.02 539.913C1770.4 542.044 1770.75 557.57 1767.38 560.057C1760.24 565.279 1749.72 568.05 1740.66 567.873C1727.59 567.624 1714.62 562.259 1701.55 561.904C1670.21 561.052 1638.8 562.188 1607.43 561.833C1597.24 561.727 1591.98 564.285 1588.32 574.907C1579.19 601.517 1552.93 616.901 1525.54 613.774C1501.17 611.003 1479.46 590.894 1475.56 567.553C1470.69 538.456 1483.9 511.349 1510.44 500.655C1521.21 496.321 1525.69 490.956 1524.23 479.943C1524.09 478.77 1524.05 477.527 1524.23 476.39C1531.26 439.335 1521.81 411.091 1484.05 395.743C1478.72 393.576 1473.07 382.1 1474.06 376.025C1480.64 336.341 1461.52 315.806 1427.77 298.469C1401.62 285.04 1380.84 277.756 1357.14 299.89C1334.8 320.816 1314.05 318.471 1287.08 302.128C1259.98 285.679 1245.05 269.337 1251.59 237.326C1254.19 224.714 1246.16 218.959 1237.06 210.645C1205.8 182.046 1177.38 185.03 1146.08 209.935C1130.05 222.689 1104.44 227.876 1095.2 243.544C1086.03 259.105 1091.47 283.583 1091.36 304.118C1091.11 359.185 1090.94 414.217 1091.75 469.284C1091.86 476.745 1096.2 485.769 1101.52 491.169C1115.66 505.558 1117.26 526.377 1103.37 540.09C1090.4 552.916 1069.87 551.992 1057.61 538.101C1044.25 522.966 1047.31 504.456 1064.43 490.92C1067.81 488.256 1070.62 482.572 1070.62 478.273C1070.9 404.269 1071.01 330.266 1070.15 256.298C1070.08 249.725 1064.68 240.95 1059.07 237.078C1040.1 224.039 1019.85 212.848 1000.2 200.769C992.313 195.902 984.71 190.608 975.509 184.533C959.592 193.734 941.758 202.971 925.309 214.269C920.299 217.715 916.071 227.272 916.889 233.312C921.756 269.834 904.916 289.161 872.906 305.219C850.488 316.481 833.399 320.638 815.103 303.514C786.894 277.081 762.167 284.507 730.619 301.773C700.314 318.364 685.464 335.844 692.214 369.879C694.949 383.735 690.224 393.789 675.942 398.656C645.104 409.172 633.274 430.666 639.242 462.57C640.308 468.29 639.989 474.436 639.491 480.298C638.639 490.281 641.445 495.504 652.032 499.696C678.607 510.247 693.031 536.573 689.833 563.61C686.956 588.017 666.705 608.267 640.628 612.815C615.297 617.256 588.119 602.299 576.999 577.643C574.831 572.847 573.162 567.766 570.746 561.442L570.817 561.478ZM1001.59 62.6029C1016.4 70.8808 1027.7 75.1085 1036.37 82.4627C1067.99 109.428 1097.97 106.266 1128.63 80.8995C1137.51 73.5453 1148.35 68.5005 1160.78 60.8976C1138.37 47.6815 1119.07 38.3022 1102.13 25.761C1088.02 15.316 1077.01 15.0318 1062.91 24.7663C1044.33 37.5561 1024.54 48.6051 1001.62 62.6384L1001.59 62.6029ZM796.984 205.068C813.753 214.518 826.329 221.908 839.332 228.622C841.855 229.937 846.296 229.439 848.996 228.089C864.059 220.451 878.839 212.28 895.963 203.043C880.047 193.272 866.795 184.746 853.117 176.965C850.097 175.26 844.626 174.585 841.926 176.184C827.857 184.533 814.286 193.77 796.984 205.068ZM1363.86 204.712C1323.14 174.656 1302.43 175.367 1276.57 207.057C1319.73 236.296 1321.3 236.261 1363.86 204.712ZM669.441 312.715C658.392 304.544 648.799 296.977 638.638 290.298C636.471 288.877 631.782 289.48 629.117 290.866C616.256 297.51 603.68 304.757 590.215 312.182C631.036 341.777 636.009 341.848 669.441 312.715ZM1496.23 312.68C1528.03 339.396 1544.23 339.183 1568.71 312.573C1541.89 284.507 1529.52 284.4 1496.23 312.68Z" fill="#FFFDD0"/>
<path d="M1416.01 1532.69C1401.94 1532.48 1392.63 1523.34 1392.46 1509.63C1392.24 1494.85 1403.54 1483.66 1417.93 1484.34C1430.44 1484.9 1441.24 1496.13 1441.34 1508.6C1441.41 1521.46 1429.41 1532.9 1416.01 1532.69Z" fill="#FFFDD0"/>
<path d="M765.471 1508.89C765.222 1522.28 753.889 1533.83 740.957 1533.86C727.918 1533.86 717.544 1522.14 718.432 1507.82C719.285 1493.47 726.426 1484.8 741.454 1484.55C755.807 1484.3 765.755 1494.6 765.471 1508.89Z" fill="#FFFDD0"/>
<path d="M1776.72 1378.71C1763.97 1378.39 1753.02 1367.27 1753.17 1354.7C1753.27 1342.87 1765.32 1331.96 1777.96 1332.24C1791.18 1332.53 1802.09 1343.47 1801.52 1355.83C1800.95 1368.02 1789.01 1379.07 1776.72 1378.75V1378.71Z" fill="#FFFDD0"/>
<path d="M825.867 431.305C813.148 431.056 802.596 419.9 803.094 407.182C803.591 393.539 813.645 383.84 826.826 384.266C839.935 384.693 850.452 395.493 849.954 407.999C849.421 420.753 838.301 431.553 825.902 431.305H825.867Z" fill="#FFFDD0"/>
<path d="M961.545 1494.35C974.122 1494.46 984.496 1505.3 984.709 1518.58C984.958 1531.76 974.3 1542.49 961.403 1542.1C948.862 1541.71 938.097 1530.59 937.991 1517.87C937.849 1504.94 948.578 1494.25 961.545 1494.35Z" fill="#FFFDD0"/>
<path d="M1336.61 430.879C1323.32 431.27 1312.45 421.358 1312.77 407.822C1313.09 394.073 1321.05 385.902 1334.62 384.552C1347.2 383.273 1359.13 394.499 1359.67 406.898C1360.2 420.079 1350.18 430.489 1336.61 430.879Z" fill="#FFFDD0"/>
<path d="M366.96 1332.78C379.857 1333.06 390.835 1344.14 389.84 1356.69C388.774 1370.79 379.679 1377.36 366.498 1378.18C353.922 1378.96 342.091 1367.24 342.34 1355.23C342.588 1342.79 353.886 1332.49 366.96 1332.78Z" fill="#FFFDD0"/>
<path d="M1199.26 1541.61C1185.08 1541.29 1174.53 1530.1 1175.49 1516.74C1176.49 1502.85 1184.13 1494.99 1198.51 1495.28C1211.48 1495.53 1222.92 1507.29 1221.46 1519.65C1219.87 1533.12 1211.69 1540.72 1199.22 1541.61H1199.26Z" fill="#FFFDD0"/>
<path d="M984.461 378.76C983.111 389.987 976.645 398.584 962.256 398.407C947.761 398.229 941.189 389.774 941.295 375.882C941.402 361.671 949.68 353.322 963.074 353.82C975.934 354.282 984.781 362.027 984.461 378.76Z" fill="#FFFDD0"/>
<path d="M1219.12 376.38C1217.95 390.627 1211.27 398.478 1197.59 398.088C1184.48 397.732 1178.48 388.922 1178.26 377.091C1178.05 364.266 1184.44 355.064 1198.44 355.348C1212.01 355.632 1217.91 364.55 1219.08 376.345L1219.12 376.38Z" fill="#FFFDD0"/>
<path d="M458.585 1503.59C451.409 1508.85 444.41 1518.05 436.949 1518.44C425.509 1519.05 416.77 1508.92 419.825 1497.3C421.601 1490.52 431.407 1481.49 437.66 1481.42C444.659 1481.35 451.729 1490.3 458.763 1495.31C458.692 1498.08 458.621 1500.82 458.585 1503.59Z" fill="#FFFDD0"/>
<path d="M481.856 416.953C474.609 421.997 467.823 430.24 460.007 431.377C448.034 433.117 441.071 422.282 443.274 412.05C444.73 405.122 454.252 395.21 460.22 395.174C467.397 395.103 474.68 404.127 481.892 409.207V416.988L481.856 416.953Z" fill="#FFFDD0"/>
<path d="M1704.42 390.841C1709.86 397.84 1718.28 404.199 1720.02 412.015C1722.51 423.171 1714.23 431.378 1702.72 431.591C1691.24 431.768 1683.18 424.094 1684.78 412.584C1685.81 405.087 1692.31 398.337 1696.32 391.267C1699.02 391.125 1701.72 390.983 1704.39 390.841H1704.42Z" fill="#FFFDD0"/>
<path d="M1750.4 1503.49C1743.47 1508.35 1737.07 1516.06 1729.51 1517.45C1717.82 1519.62 1710.61 1510.77 1710.29 1499.4C1709.97 1488.81 1715.93 1479.61 1727.48 1482.03C1735.69 1483.73 1742.76 1490.98 1750.33 1495.74L1750.43 1503.49H1750.4Z" fill="#FFFDD0"/>
<path d="M259.277 1239.87C252.776 1244.17 245.848 1252.34 239.879 1251.7C233.555 1251.03 223.821 1242.22 223.501 1236.5C223.181 1230.92 232.525 1220.47 238.245 1220.01C244.96 1219.48 252.349 1227.44 259.419 1231.74C259.348 1234.44 259.313 1237.17 259.242 1239.87H259.277Z" fill="#FFFDD0"/>
<path d="M805.581 645.002C812.864 656.797 820.361 663.618 819.934 669.871C819.544 675.378 810.271 680.245 804.906 685.397C799.613 679.677 791.086 674.49 790.056 668.059C789.239 662.943 797.517 656.335 805.581 645.002Z" fill="#FFFDD0"/>
<path d="M1922.74 1212.12C1930.77 1222.25 1938.87 1228.11 1939.44 1234.65C1939.86 1239.69 1929.13 1250.92 1926.4 1250.03C1918.94 1247.62 1910.7 1241.29 1907.6 1234.37C1906.08 1230.92 1915.21 1222.75 1922.74 1212.12Z" fill="#FFFDD0"/>
<path d="M1376.47 674.064C1370.18 677.865 1363.4 685.291 1357.78 684.473C1351.67 683.585 1346.66 675.059 1341.19 669.836C1346.48 664.614 1351.71 655.341 1357.14 655.234C1363.64 655.092 1370.32 662.766 1376.9 667.029C1376.75 669.374 1376.61 671.719 1376.51 674.064H1376.47Z" fill="#FFFDD0"/>
<path d="M1310.14 1230.14C1317.85 1239.62 1325.88 1245.27 1325.35 1249.93C1324.64 1255.93 1317.07 1261.12 1312.49 1266.66C1307.62 1261.79 1299.84 1257.49 1298.77 1251.92C1297.81 1246.94 1304.31 1240.58 1310.14 1230.14Z" fill="#FFFDD0"/>
<path d="M849.493 1229.21C856.42 1239.87 863.455 1245.88 862.78 1250.92C862.069 1256.32 854.182 1260.76 849.386 1265.63C844.696 1260.76 836.845 1256.29 836.241 1250.96C835.672 1245.84 842.565 1239.87 849.457 1229.18L849.493 1229.21Z" fill="#FFFDD0"/>
<path d="M1750.57 1027.38C1740.23 1033.39 1734.16 1039.6 1728.55 1039.25C1724.21 1038.97 1716.22 1028.98 1717.28 1025.86C1719.13 1020.42 1726.38 1014.24 1732.03 1013.46C1736.29 1012.89 1741.62 1020.31 1750.57 1027.38Z" fill="#FFFDD0"/>
<path d="M421.638 1006.67C428.814 1015.38 436.737 1021.27 435.777 1024.68C434.179 1030.44 426.967 1034.63 422.099 1039.5C417.694 1035.02 410.482 1030.97 409.771 1025.96C409.132 1021.45 415.598 1015.91 421.638 1006.67Z" fill="#FFFDD0"/>
<path d="M1407.66 477.313C1402.09 468.289 1395.9 462.605 1396.97 459.052C1398.57 453.723 1405.21 449.922 1409.69 445.445C1413.6 449.673 1420.77 454.043 1420.6 458.129C1420.38 463.28 1414.2 468.218 1407.63 477.313H1407.66Z" fill="#FFFDD0"/>
<path d="M1921.81 818.447C1916.09 810.382 1909.06 804.378 1910.16 801.18C1911.94 795.958 1919.08 792.547 1923.95 788.391C1927.71 792.832 1934.39 797.237 1934.43 801.749C1934.5 806.225 1927.96 810.808 1921.81 818.482V818.447Z" fill="#FFFDD0"/>
<path d="M766.892 457.241C758.01 464.062 753.249 470.528 748.986 470.208C744.332 469.853 737.155 463.529 736.658 459.195C736.196 455.002 742.556 446.476 746.393 446.192C751.509 445.801 757.086 451.556 766.892 457.241Z" fill="#FFFDD0"/>
<path d="M258.674 801.286C249.259 807.041 243.965 812.797 239.489 812.228C235.012 811.66 231.389 804.732 227.374 800.575C231.673 796.809 235.758 790.45 240.341 790.024C244.747 789.633 249.685 795.424 258.674 801.25V801.286Z" fill="#FFFDD0"/>
<path d="M834.5 1461.46C840.362 1470.34 845.904 1475.06 845.691 1479.54C845.513 1483.48 838.266 1490.66 835.317 1490.09C830.379 1489.17 823.842 1483.8 822.811 1479.22C821.994 1475.53 828.354 1470.27 834.5 1461.49V1461.46Z" fill="#FFFDD0"/>
<path d="M1342.72 1477.94C1334.37 1484.8 1329.61 1491.62 1325.67 1491.16C1321.15 1490.62 1315.36 1484.19 1314.05 1479.29C1313.3 1476.48 1320.02 1468.77 1323.93 1468.35C1328.44 1467.85 1333.59 1472.93 1342.72 1477.94Z" fill="#FFFDD0"/>
<path d="M176.179 973.028C197.673 959.456 216.929 946.986 236.575 935.155C239.915 933.166 245.99 932.029 248.974 933.734C264.286 942.51 279.101 952.173 293.881 961.801C302.692 967.521 302.656 973.916 293.739 979.565C279.812 988.411 266.134 997.861 251.461 1005.18C246.345 1007.74 237.499 1006.64 231.992 1003.94C213.625 994.806 196.003 984.183 176.179 973.028Z" fill="#2F2F2F"/>
<path d="M388.633 1149.1C400.357 1153.33 411.797 1157.45 423.627 1161.75C408.564 1181.61 393.5 1179.97 363.16 1156.56C389.237 1133.89 398.758 1131.16 410.411 1143.56C402.844 1145.48 395.632 1147.32 388.668 1149.1H388.633Z" fill="#2F2F2F"/>
<path d="M549.465 1250.49C576.004 1234.29 602.578 1218.13 629.117 1201.93C630.218 1203.74 631.32 1205.55 632.421 1207.36C605.669 1223.21 578.881 1239.05 552.129 1254.86C551.241 1253.41 550.353 1251.95 549.465 1250.49Z" fill="#2F2F2F"/>
<path d="M1088.06 1674.51L1015.05 1715.83C1014.34 1714.62 1013.66 1713.42 1012.95 1712.21C1036.94 1697.82 1060.92 1683.43 1084.9 1669.04C1085.96 1670.89 1086.99 1672.7 1088.06 1674.55V1674.51Z" fill="#2F2F2F"/>
<path d="M1537.05 1205.2L1477.72 1243.42C1476.94 1242.18 1476.12 1240.94 1475.34 1239.69C1495.02 1226.8 1514.71 1213.9 1534.39 1201.04C1535.28 1202.43 1536.17 1203.81 1537.05 1205.2Z" fill="#2F2F2F"/>
<path d="M1877.23 961.942C1894.14 953.841 1905.44 929.505 1931.94 936.326C1912.12 945.599 1894.67 953.77 1877.23 961.942Z" fill="#2F2F2F"/>
<path d="M1001.55 62.6039C1024.47 48.5706 1044.25 37.5216 1062.83 24.7318C1076.94 15.0328 1087.99 15.2815 1102.06 25.7265C1119 38.3032 1138.29 47.6824 1160.71 60.8631C1148.28 68.5015 1137.44 73.5108 1128.56 80.865C1097.94 106.232 1067.95 109.358 1036.3 82.4282C1027.66 75.074 1016.33 70.8463 1001.51 62.5684L1001.55 62.6039Z" fill="#2F2F2F"/>
<path d="M1005.99 1711.42C1028.91 1697.39 1048.69 1686.34 1067.28 1673.55C1081.38 1663.85 1092.43 1664.1 1106.5 1674.54C1123.44 1687.12 1142.74 1696.5 1165.15 1709.68C1152.72 1717.32 1141.88 1722.33 1133 1729.68C1102.38 1755.05 1072.39 1758.18 1040.74 1731.25C1032.1 1723.89 1020.77 1719.66 1005.96 1711.39L1005.99 1711.42Z" fill="#2F2F2F"/>
<path d="M796.948 205.068C814.286 193.806 827.821 184.533 841.89 176.184C844.59 174.585 850.097 175.26 853.081 176.966C866.759 184.746 880.011 193.237 895.927 203.043C878.768 212.244 863.988 220.416 848.96 228.09C846.26 229.475 841.819 229.937 839.297 228.623C826.329 221.908 813.717 214.518 796.948 205.068Z" fill="#2F2F2F"/>
<path d="M1363.82 204.713C1321.26 236.261 1319.7 236.296 1276.53 207.057C1302.4 175.367 1323.11 174.656 1363.82 204.713Z" fill="#2F2F2F"/>
<path d="M669.37 312.715C635.938 341.847 630.964 341.776 590.144 312.182C603.573 304.721 616.15 297.509 629.046 290.866C631.711 289.48 636.4 288.876 638.567 290.297C648.728 297.012 658.321 304.544 669.37 312.715Z" fill="#2F2F2F"/>
<path d="M1496.16 312.68C1529.42 284.4 1541.78 284.542 1568.64 312.573C1544.16 339.147 1527.96 339.396 1496.16 312.68Z" fill="#2F2F2F"/>
</g>
<g filter="url(#filter0_dii_188_356)">
<path d="M1811.37 950.324C1694.74 938.92 1629.65 996.332 1633.92 1105.22C1632.25 1105.22 1630.29 1105.83 1629.01 1105.15C1515.89 1045.54 1406.86 1055.73 1302.09 1125.51C1198.39 1194.57 1138.74 1294.05 1107.61 1412.57C1107.15 1414.28 1106.73 1415.95 1106.19 1417.62C1106.09 1417.93 1105.48 1418.08 1103.88 1419C1098.91 1403.08 1094.26 1387.35 1089.07 1371.78C1046.01 1242.82 965.114 1145.94 839.951 1091.4C755.893 1054.77 669.81 1053.99 587.067 1100.46C583.621 1102.42 579.713 1103.59 573.212 1106.32C581.099 1054.28 562.802 1014.02 526.102 981.41C488.763 948.228 445.313 938.92 394.935 951.532C396.96 938.209 399.447 926.982 400.265 915.649C403.995 864.774 385.84 821.679 352.018 784.624C303.452 731.475 240.107 707.104 171.717 692.751C168.235 692.005 164.718 691.543 161.237 690.832C158.359 690.264 155.517 689.553 150.188 688.345C154.699 685.467 157.4 682.909 160.597 681.773C319.156 626.101 478.958 612.672 640.358 669.16C688.036 685.858 727.969 715.559 764.882 749.417C823.893 803.56 885.461 854.258 955.592 893.622C967.174 900.124 979.04 906.128 992.292 911.279C929.622 817.594 947.67 714.706 952.608 613.454L957.724 610.789C984.76 644.576 1011.76 678.362 1040.25 713.996C1078.69 700.389 1119.8 700.282 1161.22 712.717C1165.1 713.889 1172.59 708.844 1176 704.723C1198.21 677.794 1219.77 650.366 1241.45 623.01C1245.03 618.498 1248.16 613.56 1253.92 610.327C1263.51 714.742 1278.96 818.517 1215.58 913.908C1220.95 911.137 1226.42 908.508 1231.68 905.559C1310.23 861.754 1381.21 807.362 1446.05 745.686C1518.03 677.19 1605.71 648.555 1700.78 637.257C1818.55 623.295 1933.2 639.744 2044.86 678.646C2050.19 680.494 2055.31 682.945 2062.2 685.787C2027.84 695.522 1995.44 703.338 1963.96 713.96C1906.59 733.323 1860.05 767.358 1829.03 820.471C1807.57 857.242 1800.36 896.464 1809.92 938.351C1810.7 941.726 1810.74 945.279 1811.3 950.324H1811.37ZM527.985 878.63C532.142 875.006 536.689 872.164 539.78 868.22C569.446 830.064 606.749 801.926 650.413 781.604C654.356 779.757 656.203 773.398 659.046 769.134C653.539 767.678 646.824 763.45 642.703 765.226C627.568 771.692 611.51 778.052 599.04 788.355C572.323 810.417 547.454 834.718 522.372 858.663C519.281 861.612 518.535 867.9 518.535 872.625C518.535 874.402 523.864 876.143 527.985 878.594V878.63ZM1557.75 763.024C1555.22 765.262 1549.65 768.744 1550.11 770.058C1551.67 774.392 1554.58 779.615 1558.46 781.569C1600.84 802.814 1636.72 832.089 1668.41 867.154C1672.25 871.382 1680.35 871.773 1686.46 873.94C1685.32 867.865 1686.11 860.333 1682.77 855.963C1652.21 816.244 1612.63 787.822 1567.55 766.718C1564.92 765.475 1562.08 764.658 1557.75 763.059V763.024ZM1000.85 792.689C1013.08 829.176 1030.95 841.006 1069.6 839.088C1057.56 807.753 1031.51 797.627 1000.85 792.689ZM1205.42 793.613C1176.18 798.977 1148.58 805.372 1140.97 840.011C1182.08 838.2 1195.3 828.82 1205.42 793.613Z" fill="#FFFDD0"/>
<path d="M1164.2 806.062C1143.83 816.781 1141.15 839.827 1141.15 839.827C1141.15 839.827 1164.2 840.898 1181.88 831.251C1199.57 821.604 1205.43 793.605 1205.43 793.605C1205.43 793.605 1184.56 795.343 1164.2 806.062Z" fill="#FFFDD0"/>
<path d="M1042.5 805.656C1062.87 816.375 1069.67 839.085 1069.67 839.085C1069.67 839.085 1042.5 842.506 1024.81 830.845C1007.13 819.184 1000.73 792.663 1000.73 792.663C1000.73 792.663 1022.13 794.937 1042.5 805.656Z" fill="#FFFDD0"/>
</g>
<defs>
<filter id="filter0_dii_188_356" x="0.1875" y="460.327" width="2212.01" height="1108.67" filterUnits="userSpaceOnUse" color-interpolation-filters="sRGB">
<feFlood flood-opacity="0" result="BackgroundImageFix"/>
<feColorMatrix in="SourceAlpha" type="matrix" values="0 0 0 0 0 0 0 0 0 0 0 0 0 0 0 0 0 0 127 0" result="hardAlpha"/>
<feOffset/>
<feGaussianBlur stdDeviation="75"/>
<feComposite in2="hardAlpha" operator="out"/>
<feColorMatrix type="matrix" values="0 0 0 0 1 0 0 0 0 0.992157 0 0 0 0 0.815686 0 0 0 1 0"/>
<feBlend mode="normal" in2="BackgroundImageFix" result="effect1_dropShadow_188_356"/>
<feBlend mode="normal" in="SourceGraphic" in2="effect1_dropShadow_188_356" result="shape"/>
<feColorMatrix in="SourceAlpha" type="matrix" values="0 0 0 0 0 0 0 0 0 0 0 0 0 0 0 0 0 0 127 0" result="hardAlpha"/>
<feOffset/>
<feGaussianBlur stdDeviation="94.8"/>
<feComposite in2="hardAlpha" operator="arithmetic" k2="-1" k3="1"/>
<feColorMatrix type="matrix" values="0 0 0 0 1 0 0 0 0 0.992157 0 0 0 0 0.815686 0 0 0 1 0"/>
<feBlend mode="normal" in2="shape" result="effect2_innerShadow_188_356"/>
<feColorMatrix in="SourceAlpha" type="matrix" values="0 0 0 0 0 0 0 0 0 0 0 0 0 0 0 0 0 0 127 0" result="hardAlpha"/>
<feOffset/>
<feGaussianBlur stdDeviation="102.8"/>
<feComposite in2="hardAlpha" operator="arithmetic" k2="-1" k3="1"/>
<feColorMatrix type="matrix" values="0 0 0 0 1 0 0 0 0 0.992157 0 0 0 0 0.815686 0 0 0 1 0"/>
<feBlend mode="normal" in2="effect2_innerShadow_188_356" result="effect3_innerShadow_188_356"/>
</filter>
</defs>
</svg>
