<svg width="2213" height="1109" viewBox="0 0 2213 1109" fill="none" xmlns="http://www.w3.org/2000/svg">
<g filter="url(#filter0_dii_188_400)">
<path d="M1811.37 490.324C1694.74 478.92 1629.65 536.332 1633.92 645.223C1632.25 645.223 1630.29 645.827 1629.01 645.152C1515.89 585.537 1406.86 595.733 1302.09 665.509C1198.39 734.574 1138.74 834.051 1107.61 952.57C1107.15 954.276 1106.73 955.945 1106.19 957.615C1106.09 957.935 1105.48 958.077 1103.88 959.001C1098.91 943.084 1094.26 927.346 1089.07 911.785C1046.01 782.82 965.114 685.937 839.951 631.403C755.893 594.774 669.81 593.993 587.067 640.462C583.621 642.416 579.713 643.589 573.212 646.324C581.099 594.277 562.802 554.024 526.102 521.41C488.763 488.228 445.313 478.92 394.935 491.532C396.96 478.209 399.447 466.982 400.265 455.649C403.995 404.774 385.84 361.679 352.018 324.624C303.452 271.475 240.107 247.104 171.717 232.751C168.235 232.005 164.718 231.543 161.237 230.832C158.359 230.264 155.517 229.553 150.188 228.345C154.699 225.467 157.4 222.909 160.597 221.773C319.156 166.101 478.958 152.672 640.358 209.16C688.036 225.858 727.969 255.559 764.882 289.417C823.893 343.56 885.461 394.258 955.592 433.622C967.174 440.124 979.04 446.128 992.292 451.279C929.622 357.594 947.67 254.706 952.608 153.454L957.724 150.789C984.76 184.576 1011.76 218.362 1040.25 253.996C1078.69 240.389 1119.8 240.282 1161.22 252.717C1165.1 253.889 1172.59 248.844 1176 244.723C1198.21 217.794 1219.77 190.366 1241.45 163.01C1245.03 158.498 1248.16 153.56 1253.92 150.327C1263.51 254.742 1278.96 358.517 1215.58 453.908C1220.95 451.137 1226.42 448.508 1231.68 445.559C1310.23 401.754 1381.21 347.362 1446.05 285.686C1518.03 217.19 1605.71 188.555 1700.78 177.257C1818.55 163.295 1933.2 179.744 2044.86 218.646C2050.19 220.494 2055.31 222.945 2062.2 225.787C2027.84 235.522 1995.44 243.338 1963.96 253.96C1906.59 273.323 1860.05 307.358 1829.03 360.471C1807.57 397.242 1800.36 436.464 1809.92 478.351C1810.7 481.726 1810.74 485.279 1811.3 490.324H1811.37ZM527.985 418.63C532.142 415.006 536.689 412.164 539.78 408.22C569.446 370.064 606.749 341.926 650.413 321.604C654.356 319.757 656.203 313.398 659.046 309.134C653.539 307.678 646.824 303.45 642.703 305.226C627.568 311.692 611.51 318.052 599.04 328.355C572.323 350.417 547.454 374.718 522.372 398.663C519.281 401.612 518.535 407.9 518.535 412.625C518.535 414.402 523.864 416.143 527.985 418.594V418.63ZM1557.75 303.024C1555.22 305.262 1549.65 308.744 1550.11 310.058C1551.67 314.392 1554.58 319.615 1558.46 321.569C1600.84 342.814 1636.72 372.089 1668.41 407.154C1672.25 411.382 1680.35 411.773 1686.46 413.94C1685.32 407.865 1686.11 400.333 1682.77 395.963C1652.21 356.244 1612.63 327.822 1567.55 306.718C1564.92 305.475 1562.08 304.658 1557.75 303.059V303.024ZM1000.85 332.689C1013.08 369.176 1030.95 381.006 1069.6 379.088C1057.56 347.753 1031.51 337.627 1000.85 332.689ZM1205.42 333.613C1176.18 338.977 1148.58 345.372 1140.97 380.011C1182.08 378.2 1195.3 368.82 1205.42 333.613Z" fill="#FFFDD0"/>
<path d="M1164.2 346.062C1143.83 356.781 1141.15 379.827 1141.15 379.827C1141.15 379.827 1164.2 380.898 1181.88 371.251C1199.57 361.604 1205.43 333.605 1205.43 333.605C1205.43 333.605 1184.56 335.343 1164.2 346.062Z" fill="#E20000"/>
<path d="M1042.5 345.656C1062.87 356.375 1069.67 379.085 1069.67 379.085C1069.67 379.085 1042.5 382.506 1024.81 370.845C1007.13 359.184 1000.73 332.663 1000.73 332.663C1000.73 332.663 1022.13 334.937 1042.5 345.656Z" fill="#E20000"/>
</g>
<defs>
<filter id="filter0_dii_188_400" x="0.1875" y="0.327148" width="2212.01" height="1108.67" filterUnits="userSpaceOnUse" color-interpolation-filters="sRGB">
<feFlood flood-opacity="0" result="BackgroundImageFix"/>
<feColorMatrix in="SourceAlpha" type="matrix" values="0 0 0 0 0 0 0 0 0 0 0 0 0 0 0 0 0 0 127 0" result="hardAlpha"/>
<feOffset/>
<feGaussianBlur stdDeviation="75"/>
<feComposite in2="hardAlpha" operator="out"/>
<feColorMatrix type="matrix" values="0 0 0 0 1 0 0 0 0 0.992157 0 0 0 0 0.815686 0 0 0 1 0"/>
<feBlend mode="normal" in2="BackgroundImageFix" result="effect1_dropShadow_188_400"/>
<feBlend mode="normal" in="SourceGraphic" in2="effect1_dropShadow_188_400" result="shape"/>
<feColorMatrix in="SourceAlpha" type="matrix" values="0 0 0 0 0 0 0 0 0 0 0 0 0 0 0 0 0 0 127 0" result="hardAlpha"/>
<feOffset/>
<feGaussianBlur stdDeviation="94.8"/>
<feComposite in2="hardAlpha" operator="arithmetic" k2="-1" k3="1"/>
<feColorMatrix type="matrix" values="0 0 0 0 1 0 0 0 0 0.992157 0 0 0 0 0.815686 0 0 0 1 0"/>
<feBlend mode="normal" in2="shape" result="effect2_innerShadow_188_400"/>
<feColorMatrix in="SourceAlpha" type="matrix" values="0 0 0 0 0 0 0 0 0 0 0 0 0 0 0 0 0 0 127 0" result="hardAlpha"/>
<feOffset/>
<feGaussianBlur stdDeviation="102.8"/>
<feComposite in2="hardAlpha" operator="arithmetic" k2="-1" k3="1"/>
<feColorMatrix type="matrix" values="0 0 0 0 1 0 0 0 0 0.992157 0 0 0 0 0.815686 0 0 0 1 0"/>
<feBlend mode="normal" in2="effect2_innerShadow_188_400" result="effect3_innerShadow_188_400"/>
</filter>
</defs>
</svg>
