<svg width="1546" height="1500" viewBox="0 0 1546 1500" fill="none" xmlns="http://www.w3.org/2000/svg">
<path d="M141.767 882.209C156.423 891.536 168.67 900.126 181.796 907.128C185.056 908.857 192.427 906.901 195.63 904.038C216.694 885.242 235.348 888.361 257.971 903.839C272.684 913.904 281.104 922.437 277.39 940.155C274.215 955.322 282.04 962.438 294.145 971.226C315.407 986.648 333.04 988.151 354.189 971.906C369.044 960.482 386.28 952.062 402.978 943.274C406.975 941.176 414.006 940.977 417.862 943.103C443.915 957.42 469.684 972.275 495.029 987.839C499.139 990.362 502.796 997.222 502.853 1002.13C503.278 1033.76 503.108 1065.43 501.918 1097.07C501.719 1102.71 497.183 1110.28 492.336 1113.34C471.584 1126.41 450.152 1138.4 428.606 1150.17C421.405 1154.08 418.542 1158.73 418.882 1166.92C419.478 1181.52 419.052 1196.18 419.052 1210.35C427.727 1216.11 436.657 1220.59 443.688 1227.14C449.358 1232.41 456.218 1239.95 456.53 1246.75C457.466 1266.12 471.47 1271.99 484.823 1279.27C497.609 1286.27 510.508 1293.08 522.471 1299.46C540.388 1288.23 557.681 1276.95 575.541 1266.63C578.688 1264.81 584.84 1265.78 588.468 1267.65C602.7 1275.05 616.903 1282.67 630.17 1291.6C634.65 1294.61 639.696 1302.29 638.874 1306.83C633.09 1338.49 648.257 1356.07 675.898 1366.53C680.576 1368.32 684.913 1371.04 685.99 1371.58C693.73 1363.67 698.946 1356.3 705.948 1351.56C721.172 1341.27 737.785 1332.99 752.838 1322.48C757.629 1319.13 762.194 1311.31 762.024 1305.66C761.4 1281.4 758.593 1257.19 757.544 1232.89C757.346 1228.02 760.096 1221.35 763.781 1218.49C766.786 1216.17 774.951 1216.36 777.729 1218.89C781.613 1222.4 784.675 1229.18 784.505 1234.45C783.711 1258.26 781.074 1282.02 780.507 1305.83C780.394 1311.11 784.76 1318.31 789.296 1321.48C802.393 1330.64 816.341 1338.75 830.516 1346.2C842.791 1352.67 856.455 1357.2 848.461 1380C869.354 1367.35 885.996 1357.88 901.815 1347.14C904.876 1345.07 906.266 1337.7 905.472 1333.3C900.341 1305.47 913.183 1290.84 936.883 1277.03C957.833 1264.81 973.284 1264.5 991.059 1278.87C996.162 1283.01 1003.02 1285.22 1007.5 1289.85C1017.59 1300.28 1027.12 1298.97 1038.09 1291.55C1045.06 1286.81 1052.97 1283.38 1060.57 1279.61C1074.41 1272.75 1087.22 1267 1087.65 1246.95C1087.96 1231.79 1100.09 1220.47 1114.78 1215.26C1123.34 1212.2 1124.73 1207.32 1124.78 1199.41C1125.07 1158.33 1125.24 1158.33 1089.97 1137.24C1076.19 1128.99 1061.99 1121.36 1048.86 1112.21C1044.44 1109.12 1040.27 1102.26 1040.16 1096.98C1039.37 1066.28 1040.05 1035.58 1039.62 1004.88C1039.51 996.344 1042.03 991.326 1049.77 986.96C1074.04 973.296 1098.05 959.149 1121.49 944.124C1129.63 938.908 1135.19 939.361 1143.01 944.181C1164.7 957.562 1186.84 970.177 1208.98 982.793C1212.41 984.749 1217.8 987.3 1220.46 985.968C1234.35 978.994 1248.05 971.424 1260.83 962.665C1263.69 960.708 1264.23 952.941 1263.38 948.291C1258.93 923.826 1269.45 909.821 1290.74 898C1307.1 888.899 1319.71 884.42 1334.68 898.056C1347.44 909.679 1360.25 908.716 1373.52 897.716C1380.98 891.536 1389.88 887.113 1399.23 881.217C1395.32 878.608 1393.22 876.482 1390.7 875.66C1367.03 867.977 1360.14 851.677 1363.37 827.92C1365.44 812.583 1364.76 796.735 1363.83 781.228C1363.14 769.945 1367.68 764.219 1377.38 759.456C1393.03 751.745 1408.33 743.183 1422.93 733.686C1427.47 730.738 1431.13 723.906 1431.95 718.378C1433.37 708.682 1431.5 698.505 1432.6 688.724C1433.17 683.706 1436.74 675.343 1439.74 675.003C1449.33 673.841 1450.23 681.75 1450.06 689.461C1449.87 698.42 1450.72 707.463 1450.01 716.365C1449.3 725.578 1452.5 731.135 1460.89 735.416C1476.85 743.552 1492.59 752.227 1507.73 761.809C1511.87 764.445 1515.72 770.966 1515.89 775.842C1516.74 799.911 1515.89 824.036 1516.52 848.104C1516.74 857.091 1513 861.599 1505.69 865.766C1486.44 876.766 1467.27 888.021 1448.76 900.211C1441.08 905.285 1435.32 905.597 1428.66 899.757C1420.07 892.188 1412.93 894.654 1402.44 899.077C1370.35 912.685 1356.23 934.485 1361.87 969.015C1363.34 978.115 1358.38 983.218 1350.76 988.066C1311.8 1012.98 1311.8 1013.44 1274.16 986.308C1267.75 981.687 1263.61 982.112 1256.64 984.777C1233.25 993.764 1221.71 1007.74 1225.54 1034.7C1228.43 1055.08 1226.78 1076.23 1225.68 1096.96C1225.37 1102.8 1221.14 1110.51 1216.29 1113.63C1196.08 1126.67 1175.13 1138.57 1154.1 1150.28C1144.88 1155.41 1139.41 1161.51 1141.48 1172.62C1142.08 1175.82 1141.82 1179.23 1141.57 1182.51C1140.15 1199.21 1140.52 1212.71 1160.02 1222.15C1177.23 1230.48 1184.97 1249.22 1180.43 1269.49C1176.1 1288.85 1164.67 1303.11 1144.4 1307C1123.9 1310.94 1105.9 1306.2 1094.02 1287.07C1093.06 1285.54 1091.61 1284.32 1090.34 1282.9C1069.47 1294.78 1049.29 1306.91 1028.45 1317.88C1020.12 1322.28 1016.12 1327.44 1017.82 1336.68C1021.25 1355.33 1012.41 1364.83 996.87 1375.43C972.887 1391.79 952.532 1394.37 931.128 1374.21C917.804 1361.65 906.776 1366.5 891.609 1373.28C859.007 1387.82 842.933 1408.74 850.502 1444.94C852.203 1453.02 848.093 1457.76 841.175 1461.78C820.764 1473.63 800.976 1486.56 780.337 1497.99C775.773 1500.51 767.495 1500.74 763.044 1498.24C741.697 1486.16 720.832 1473.15 700.449 1459.52C696.253 1456.71 693.078 1450.05 692.369 1444.77C691.093 1435.02 690.952 1424.85 692.256 1415.09C694.212 1400.27 686.954 1392.92 675.615 1384.67C647.719 1364.38 621.581 1359.1 594.79 1385.69C585.719 1394.71 575.995 1394.62 566.384 1385.78C564.003 1383.57 561.026 1381.73 558.021 1380.51C535.171 1371.12 520.487 1357.12 526.44 1329.59C527.092 1326.59 523.038 1320.92 519.721 1318.96C498.176 1306.34 476.205 1294.44 458.571 1284.6C443.291 1293.22 431.498 1303.4 418.06 1306.68C394.672 1312.41 372.729 1297.39 366.351 1275.42C359.49 1251.8 369.639 1225.89 391.015 1216.7C400.03 1212.82 401.022 1207.77 402.468 1199.07C407.712 1167.43 395.721 1147.64 366.181 1136.08C353.594 1131.15 342.736 1121.87 330.404 1116.06C319.291 1110.82 316.201 1103.25 316.456 1091.51C317.023 1065.54 315.889 1039.55 316.201 1013.58C316.314 1004.79 313.337 999.831 305.456 996.06C295.307 991.184 285.782 985.004 276.54 979.703C262.564 988.519 249.381 997.733 235.263 1005.22C230.699 1007.63 223.583 1006.1 217.885 1005.08C214.426 1004.45 211.648 1000.68 208.161 999.462C181.994 990.248 172.838 971.595 177.657 945.173C180.464 929.864 174.198 920.169 160.25 914.102C153.815 911.295 147.663 907.44 142.05 903.216C131.703 895.42 122.064 892.216 110.639 901.912C108.059 904.095 100.575 903.159 96.9178 901.005C76.9881 889.325 57.257 877.219 38.1494 864.264C33.6135 861.174 29.2194 854.341 28.9926 849.068C27.972 824.064 28.0003 799.003 28.7374 773.999C28.8792 769.662 33.33 763.935 37.3557 761.497C51.4453 752.936 66.1587 745.338 80.8153 737.712C90.4825 732.694 96.039 726.06 94.82 714.239C93.8561 704.883 93.9978 695.301 94.9901 685.946C95.3869 682.26 99.4409 679 101.822 675.542C104.912 678.887 110.214 681.977 110.639 685.634C111.858 696.378 110.242 707.435 111.518 718.151C112.141 723.31 115.572 729.859 119.796 732.524C135.757 742.531 152.369 751.631 169.152 760.193C176.693 764.048 178.678 769.123 178.536 777.032C178.196 800.648 178.054 824.291 178.876 847.878C179.216 857.8 175.956 863.697 167.111 867.864C159.201 871.578 151.831 876.511 141.795 882.322L141.767 882.209ZM49.0923 773.631C64.9113 782.532 78.9726 791.009 93.6292 798.295C98.0234 800.477 105.054 801.328 109.165 799.287C120.901 793.447 131.816 785.906 142.901 778.847C149.988 774.339 150.045 769.236 143.014 764.672C131.192 756.989 119.399 749.278 107.18 742.276C104.799 740.915 99.9512 741.823 97.2863 743.41C81.6091 752.85 66.2437 762.801 49.0923 773.631ZM218.622 914.13C224.178 912.713 229.962 911.239 235.972 909.708C226.673 899.814 219.075 902.025 198.267 920.084C222.477 938.766 234.526 940.042 246.518 924.223C237.077 920.821 227.977 917.532 218.594 914.13H218.622ZM346.96 995.011C347.668 996.173 348.377 997.336 349.086 998.498C370.433 985.854 391.808 973.211 413.156 960.595C412.277 959.149 411.398 957.703 410.519 956.258C389.342 969.185 368.137 982.084 346.96 995.011ZM776.737 1333.36C775.886 1331.89 775.064 1330.44 774.214 1328.97C755.078 1340.45 735.942 1351.93 716.806 1363.41C717.373 1364.38 717.912 1365.34 718.479 1366.3L776.737 1333.33V1333.36ZM1135.02 958.866C1134.31 957.76 1133.6 956.654 1132.89 955.549C1117.19 965.84 1101.48 976.13 1085.77 986.393C1086.4 987.385 1087.05 988.377 1087.67 989.37L1135.02 958.866ZM1406.46 764.757C1420.38 758.237 1434.3 751.717 1450.12 744.317C1428.94 738.874 1419.96 758.322 1406.46 764.757Z" fill="#FFFDD0"/>
<path d="M363.999 448.037C327.286 448.037 290.489 447.896 253.691 448.264C249.864 448.292 246.009 452.97 242.323 452.743C234.981 452.29 225.994 451.921 221.089 447.612C217.971 444.862 218.51 431.623 221.741 429.383C227.071 425.698 236.029 426.152 243.344 426.605C249.977 427.03 256.469 431.198 263.047 431.311C293.267 431.821 323.516 431.226 353.736 431.566C361.788 431.651 365.473 428.618 370.207 421.984C376.983 412.487 387.33 405.57 395.949 397.349C398.585 394.825 401.505 391.849 402.469 388.532C403.603 384.591 402.129 379.999 402.866 375.86C407.855 347.397 398.67 327.099 370.888 315.645C366.465 313.831 364.481 305.78 361.759 300.422C360.994 298.919 361.589 296.708 361.532 294.809C360.597 243.865 360.512 243.695 406.721 221.355C410.804 219.371 418.827 219.456 421.747 222.121C445.078 243.61 468.155 244.687 492.082 223.623C493.102 222.716 494.491 222.092 495.824 221.639C520.629 213.219 533.302 197.513 527.405 170.156C525.364 160.716 530.268 155.358 538.886 151.956C545.889 149.206 553.43 146.428 558.958 141.637C577.186 125.846 594.678 128.596 611.659 142.544C628.017 155.953 642.135 152.948 661.044 144.698C686.218 133.727 697.19 119.269 691.888 92.7056C684.772 57.1271 697.813 34.0506 732.57 21.5769C746.914 16.4173 759.331 0.286451 772.854 0.00295685C785.611 -0.252188 797.858 16.0771 811.778 20.9816C846.563 33.2285 859.887 55.9931 852.828 91.8268C848.008 116.292 858.299 130.184 880.667 142.43C901.759 153.969 917.862 160.007 937.366 142.119C952.023 128.681 968.38 126.3 984.426 141.013C984.766 141.325 985.191 141.58 985.645 141.722C1011.64 149.915 1023.41 166.414 1018.22 194.367C1017.42 198.647 1021.76 206.075 1025.84 208.655C1043.02 219.428 1060.74 229.435 1078.89 238.478C1083.59 240.831 1092.58 241.058 1096.24 238.081C1119.85 218.889 1141.88 216.678 1168.05 235.275C1179.7 243.553 1186.25 249.733 1183.58 263.624C1183.33 264.985 1183.35 266.488 1183.58 267.877C1188.14 297.729 1181.57 321.23 1149.31 331.748C1145.62 332.939 1142.62 340.139 1141.71 344.987C1140.43 351.819 1141.71 359.105 1141.34 366.193C1140.38 382.777 1138.9 398.936 1160.05 405.627C1165.1 407.242 1170.6 413.536 1172.18 418.809C1175.98 431.283 1184.15 431.878 1194.86 431.595C1219.41 430.914 1243.99 431.821 1268.54 430.999C1278.04 430.687 1287.4 426.407 1296.92 426.01C1304.21 425.698 1312.6 427.087 1318.52 430.829C1321.22 432.53 1321.5 444.919 1318.81 446.903C1313.11 451.071 1304.72 453.282 1297.49 453.14C1287.06 452.942 1276.71 448.661 1266.28 448.377C1241.27 447.697 1216.21 448.604 1191.18 448.321C1183.04 448.236 1178.85 450.277 1175.93 458.753C1168.64 479.987 1147.69 492.262 1125.83 489.768C1106.39 487.556 1089.06 471.511 1085.95 452.885C1082.06 429.667 1092.61 408.036 1113.78 399.503C1122.37 396.044 1125.95 391.764 1124.78 382.975C1124.67 382.04 1124.64 381.048 1124.78 380.14C1130.4 350.572 1122.86 328.034 1092.72 315.787C1088.47 314.058 1083.96 304.901 1084.75 300.053C1090 268.387 1074.75 252.001 1047.82 238.167C1026.95 227.45 1010.37 221.639 991.456 239.3C973.625 255.998 957.069 254.127 935.552 241.087C913.921 227.961 902.014 214.92 907.23 189.377C909.3 179.313 902.893 174.72 895.635 168.087C870.688 145.265 848.008 147.647 823.033 167.52C810.247 177.697 789.807 181.836 782.436 194.338C775.122 206.755 779.46 226.288 779.375 242.674C779.176 286.616 779.034 330.529 779.686 374.47C779.771 380.424 783.23 387.625 787.483 391.934C798.766 403.415 800.041 420.028 788.957 430.971C778.609 441.205 762.223 440.468 752.443 429.383C741.783 417.307 744.221 402.536 757.886 391.735C760.579 389.609 762.818 385.073 762.818 381.643C763.045 322.591 763.13 263.539 762.45 204.516C762.393 199.271 758.084 192.269 753.605 189.179C738.466 178.774 722.307 169.844 706.63 160.206C700.336 156.322 694.27 152.098 686.927 147.25C674.227 154.592 659.995 161.963 646.869 170.978C642.872 173.728 639.498 181.354 640.151 186.174C644.034 215.317 630.597 230.739 605.054 243.553C587.165 252.54 573.529 255.857 558.929 242.192C536.42 221.1 516.689 227.025 491.514 240.803C467.332 254.042 455.482 267.99 460.869 295.149C463.052 306.205 459.281 314.228 447.885 318.112C423.277 326.503 413.837 343.655 418.6 369.112C419.45 373.677 419.195 378.581 418.798 383.259C418.118 391.225 420.357 395.392 428.806 398.738C450.011 407.157 461.521 428.164 458.969 449.738C456.673 469.214 440.514 485.374 419.705 489.002C399.492 492.546 377.805 480.611 368.932 460.936C367.202 457.109 365.87 453.055 363.942 448.009L363.999 448.037ZM707.736 49.9547C719.557 56.5601 728.572 59.9337 735.49 65.802C760.721 87.3192 784.648 84.7961 809.113 64.5546C816.201 58.6863 824.847 54.6607 834.769 48.5939C816.881 38.0479 801.487 30.5636 787.964 20.5563C776.71 12.2216 767.921 11.9948 756.667 19.7625C741.84 29.9683 726.049 38.785 707.764 49.983L707.736 49.9547ZM544.471 163.636C557.852 171.177 567.888 177.074 578.264 182.432C580.277 183.48 583.82 183.084 585.975 182.006C597.995 175.911 609.788 169.391 623.453 162.02C610.752 154.224 600.178 147.42 589.263 141.211C586.854 139.851 582.488 139.312 580.333 140.588C569.107 147.25 558.277 154.621 544.471 163.636ZM996.815 163.352C964.326 139.369 947.798 139.936 927.16 165.223C961.605 188.555 962.852 188.527 996.815 163.352ZM442.697 249.535C433.88 243.014 426.226 236.976 418.118 231.646C416.389 230.512 412.646 230.994 410.52 232.1C400.258 237.401 390.222 243.184 379.478 249.109C412.051 272.724 416.02 272.781 442.697 249.535ZM1102.44 249.506C1127.82 270.825 1140.74 270.655 1160.28 249.421C1138.87 227.025 1129.01 226.94 1102.44 249.506Z" fill="#FFFDD0"/>
<path d="M1038.43 1223.03C1027.2 1222.86 1019.78 1215.57 1019.64 1204.63C1019.47 1192.83 1028.48 1183.9 1039.96 1184.44C1049.94 1184.9 1058.56 1193.85 1058.64 1203.8C1058.7 1214.07 1049.12 1223.2 1038.43 1223.03Z" fill="#FFFDD0"/>
<path d="M519.325 1204.03C519.127 1214.72 510.083 1223.93 499.764 1223.96C489.36 1223.96 481.082 1214.61 481.79 1203.18C482.471 1191.73 488.169 1184.81 500.161 1184.61C511.614 1184.41 519.552 1192.63 519.325 1204.03Z" fill="#FFFDD0"/>
<path d="M1326.26 1100.16C1316.09 1099.9 1307.35 1091.03 1307.47 1081C1307.55 1071.56 1317.16 1062.85 1327.26 1063.08C1337.8 1063.31 1346.5 1072.04 1346.05 1081.9C1345.6 1091.63 1336.07 1100.44 1326.26 1100.19V1100.16Z" fill="#FFFDD0"/>
<path d="M567.518 344.165C557.369 343.966 548.95 335.064 549.346 324.915C549.743 314.029 557.766 306.29 568.284 306.63C578.745 306.97 587.136 315.588 586.739 325.567C586.314 335.745 577.441 344.363 567.547 344.165H567.518Z" fill="#FFFDD0"/>
<path d="M675.785 1192.44C685.821 1192.52 694.099 1201.17 694.269 1211.77C694.467 1222.29 685.962 1230.85 675.672 1230.54C665.664 1230.23 657.074 1221.35 656.989 1211.2C656.876 1200.88 665.438 1192.35 675.785 1192.44Z" fill="#FFFDD0"/>
<path d="M975.07 343.824C964.467 344.136 955.792 336.227 956.047 325.426C956.303 314.454 962.653 307.934 973.482 306.857C983.518 305.836 993.044 314.795 993.469 324.689C993.894 335.206 985.899 343.513 975.07 343.824Z" fill="#FFFDD0"/>
<path d="M201.329 1063.5C211.62 1063.73 220.38 1072.57 219.586 1082.58C218.736 1093.84 211.479 1099.08 200.961 1099.73C190.925 1100.36 181.485 1091 181.683 1081.42C181.882 1071.5 190.897 1063.28 201.329 1063.5Z" fill="#FFFDD0"/>
<path d="M865.472 1230.14C854.16 1229.89 845.74 1220.96 846.506 1210.3C847.3 1199.21 853.395 1192.95 864.876 1193.17C875.224 1193.37 884.352 1202.76 883.19 1212.62C881.914 1223.37 875.394 1229.43 865.443 1230.14H865.472Z" fill="#FFFDD0"/>
<path d="M694.071 302.236C692.993 311.195 687.834 318.055 676.352 317.914C664.786 317.772 659.541 311.025 659.626 299.94C659.711 288.6 666.316 281.938 677.004 282.335C687.267 282.704 694.326 288.884 694.071 302.236Z" fill="#FFFDD0"/>
<path d="M881.319 300.337C880.383 311.705 875.054 317.97 864.139 317.658C853.678 317.375 848.887 310.344 848.717 300.904C848.547 290.67 853.65 283.327 864.819 283.554C875.649 283.781 880.355 290.896 881.29 300.308L881.319 300.337Z" fill="#FFFDD0"/>
<path d="M274.442 1199.81C268.716 1204 263.131 1211.35 257.178 1211.66C248.049 1212.14 241.075 1204.06 243.513 1194.79C244.931 1189.38 252.755 1182.17 257.745 1182.12C263.33 1182.06 268.971 1189.2 274.584 1193.2C274.528 1195.41 274.471 1197.6 274.442 1199.81Z" fill="#FFFDD0"/>
<path d="M293.012 332.713C287.228 336.738 281.814 343.315 275.577 344.222C266.023 345.612 260.466 336.965 262.224 328.8C263.386 323.272 270.984 315.363 275.747 315.334C281.473 315.278 287.285 322.478 293.04 326.532V332.741L293.012 332.713Z" fill="#FFFDD0"/>
<path d="M1268.57 311.875C1272.91 317.46 1279.63 322.534 1281.02 328.771C1283 337.673 1276.4 344.222 1267.21 344.392C1258.05 344.534 1251.62 338.41 1252.89 329.225C1253.72 323.243 1258.9 317.857 1262.11 312.215C1264.26 312.102 1266.42 311.988 1268.54 311.875H1268.57Z" fill="#FFFDD0"/>
<path d="M1305.26 1199.72C1299.73 1203.61 1294.62 1209.76 1288.59 1210.86C1279.26 1212.59 1273.5 1205.53 1273.25 1196.46C1272.99 1188.01 1277.76 1180.67 1286.97 1182.6C1293.52 1183.96 1299.16 1189.74 1305.2 1193.54L1305.28 1199.72H1305.26Z" fill="#FFFDD0"/>
<path d="M115.402 989.37C110.214 992.8 104.686 999.32 99.9236 998.81C94.8774 998.271 87.1097 991.241 86.8545 986.676C86.5994 982.225 94.0553 973.891 98.6195 973.522C103.978 973.097 109.874 979.447 115.516 982.878C115.459 985.032 115.431 987.215 115.374 989.37H115.402Z" fill="#FFFDD0"/>
<path d="M551.331 514.688C557.143 524.1 563.125 529.543 562.784 534.532C562.473 538.926 555.073 542.81 550.793 546.921C546.569 542.357 539.765 538.217 538.943 533.086C538.291 529.004 544.896 523.731 551.331 514.688Z" fill="#FFFDD0"/>
<path d="M1442.78 967.229C1449.19 975.308 1455.65 979.986 1456.1 985.202C1456.44 989.228 1447.88 998.186 1445.7 997.477C1439.75 995.55 1433.17 990.503 1430.7 984.975C1429.48 982.225 1436.77 975.705 1442.78 967.229Z" fill="#FFFDD0"/>
<path d="M1006.88 537.876C1001.86 540.91 996.446 546.835 991.967 546.183C987.091 545.474 983.093 538.67 978.728 534.503C982.952 530.335 987.119 522.936 991.456 522.851C996.644 522.738 1001.97 528.861 1007.22 532.263C1007.11 534.134 1006.99 536.005 1006.91 537.876H1006.88Z" fill="#FFFDD0"/>
<path d="M953.95 981.602C960.102 989.171 966.509 993.678 966.084 997.392C965.517 1002.18 959.478 1006.32 955.821 1010.74C951.938 1006.86 945.729 1003.43 944.878 998.98C944.113 995.011 949.301 989.936 953.95 981.602Z" fill="#FFFDD0"/>
<path d="M586.371 980.864C591.899 989.369 597.512 994.16 596.974 998.186C596.407 1002.5 590.113 1006.04 586.286 1009.92C582.544 1006.04 576.279 1002.47 575.797 998.214C575.343 994.132 580.843 989.369 586.343 980.836L586.371 980.864Z" fill="#FFFDD0"/>
<path d="M1305.4 819.811C1297.15 824.602 1292.3 829.564 1287.82 829.28C1284.36 829.053 1277.98 821.087 1278.83 818.592C1280.31 814.255 1286.09 809.322 1290.6 808.698C1294 808.245 1298.25 814.17 1305.4 819.811Z" fill="#FFFDD0"/>
<path d="M244.959 803.283C250.686 810.229 257.008 814.935 256.242 817.656C254.967 822.249 249.212 825.594 245.328 829.478C241.813 825.906 236.058 822.674 235.491 818.677C234.98 815.077 240.14 810.654 244.959 803.283Z" fill="#FFFDD0"/>
<path d="M1031.77 380.877C1027.32 373.676 1022.39 369.14 1023.24 366.305C1024.51 362.053 1029.81 359.019 1033.38 355.447C1036.5 358.821 1042.23 362.308 1042.09 365.568C1041.92 369.679 1036.99 373.619 1031.74 380.877H1031.77Z" fill="#FFFDD0"/>
<path d="M1442.04 653.089C1437.48 646.654 1431.86 641.863 1432.74 639.311C1434.16 635.144 1439.86 632.422 1443.74 629.105C1446.75 632.649 1452.08 636.165 1452.11 639.765C1452.16 643.337 1446.95 646.994 1442.04 653.117V653.089Z" fill="#FFFDD0"/>
<path d="M520.459 364.86C513.371 370.303 509.573 375.463 506.171 375.208C502.457 374.924 496.73 369.878 496.333 366.419C495.965 363.074 501.039 356.27 504.101 356.043C508.183 355.732 512.634 360.324 520.459 364.86Z" fill="#FFFDD0"/>
<path d="M114.92 639.395C107.408 643.988 103.184 648.58 99.6115 648.127C96.0395 647.673 93.1478 642.145 89.9443 638.828C93.3746 635.823 96.6348 630.749 100.292 630.408C103.807 630.097 107.748 634.718 114.92 639.367V639.395Z" fill="#FFFDD0"/>
<path d="M574.408 1166.18C579.085 1173.27 583.508 1177.04 583.338 1180.61C583.196 1183.76 577.413 1189.49 575.06 1189.03C571.119 1188.3 565.903 1184.02 565.081 1180.36C564.429 1177.41 569.503 1173.22 574.408 1166.21V1166.18Z" fill="#FFFDD0"/>
<path d="M979.946 1179.34C973.284 1184.81 969.485 1190.25 966.339 1189.88C962.738 1189.46 958.117 1184.33 957.068 1180.42C956.473 1178.18 961.831 1172.02 964.949 1171.68C968.55 1171.29 972.66 1175.34 979.946 1179.34Z" fill="#FFFDD0"/>
<path d="M49.0928 773.437C66.2442 762.608 81.6096 752.657 97.2868 743.217C99.9516 741.629 104.799 740.722 107.181 742.083C119.399 749.085 131.221 756.796 143.014 764.479C150.045 769.043 150.017 774.146 142.901 778.654C131.788 785.713 120.874 793.253 109.165 799.093C105.083 801.135 98.0239 800.256 93.6297 798.101C78.973 790.815 64.9118 782.339 49.0928 773.437Z" fill="#2F2F2F"/>
<path d="M1391 771.018C1408.15 760.189 1423.52 750.238 1439.19 740.798C1441.86 739.21 1446.71 738.303 1449.09 739.664C1461.31 746.666 1473.13 754.377 1484.92 762.06C1491.95 766.624 1491.92 771.727 1484.81 776.235C1473.7 783.294 1462.78 790.835 1451.07 796.675C1446.99 798.716 1439.93 797.837 1435.54 795.682C1420.88 788.397 1406.82 779.92 1391 771.018Z" fill="#2F2F2F"/>
<path d="M198 920C222.21 938.682 235.231 940.201 247.251 924.353L236.705 909.839C227.406 899.945 218.808 901.913 198 920Z" fill="#2F2F2F"/>
<path d="M346.96 994.845C368.137 981.918 389.343 969.019 410.52 956.092C411.399 957.538 412.277 958.984 413.156 960.429C391.809 973.073 370.434 985.717 349.087 998.333C348.378 997.17 347.669 996.008 346.96 994.845Z" fill="#2F2F2F"/>
<path d="M776.737 1336.2L718.479 1369.17C717.912 1368.2 717.374 1367.24 716.807 1366.27C735.943 1354.79 755.078 1343.31 774.214 1331.83C775.065 1333.3 775.887 1334.75 776.737 1336.22V1336.2Z" fill="#2F2F2F"/>
<path d="M1135.02 958.7L1087.67 989.204C1087.05 988.211 1086.4 987.219 1085.77 986.227C1101.48 975.936 1117.19 965.645 1132.89 955.383C1133.6 956.488 1134.31 957.594 1135.02 958.7Z" fill="#2F2F2F"/>
<path d="M707.707 49.9548C725.992 38.7568 741.783 29.9401 756.61 19.7343C767.865 11.9949 776.681 12.1934 787.908 20.5281C801.43 30.5638 816.824 38.048 834.712 48.5657C824.79 54.6608 816.144 58.6581 809.056 64.5264C784.619 84.7679 760.692 87.2626 735.433 65.7738C728.544 59.9055 719.5 56.5318 707.679 49.9264L707.707 49.9548Z" fill="#2F2F2F"/>
<path d="M711.251 1365.65C729.536 1354.45 745.327 1345.63 760.153 1335.43C771.408 1327.69 780.225 1327.88 791.451 1336.22C804.974 1346.26 820.367 1353.74 838.256 1364.26C828.334 1370.35 819.687 1374.35 812.6 1380.22C788.163 1400.46 764.236 1402.95 738.976 1381.47C732.087 1375.6 723.044 1372.22 711.222 1365.62L711.251 1365.65Z" fill="#2F2F2F"/>
<path d="M544.442 163.635C558.277 154.648 569.078 147.249 580.304 140.587C582.459 139.311 586.853 139.85 589.234 141.211C600.149 147.419 610.723 154.195 623.424 162.019C609.731 169.362 597.938 175.882 585.946 182.005C583.791 183.111 580.248 183.48 578.235 182.431C567.887 177.073 557.823 171.176 544.442 163.635Z" fill="#2F2F2F"/>
<path d="M996.786 163.353C962.823 188.528 961.576 188.556 927.131 165.224C947.77 139.937 964.297 139.37 996.786 163.353Z" fill="#2F2F2F"/>
<path d="M442.64 249.535C415.963 272.782 411.994 272.725 379.42 249.11C390.136 243.156 400.172 237.402 410.463 232.1C412.589 230.995 416.331 230.513 418.061 231.647C426.169 237.005 433.823 243.015 442.64 249.535Z" fill="#2F2F2F"/>
<path d="M1102.39 249.506C1128.92 226.94 1138.79 227.053 1160.22 249.421C1140.69 270.626 1127.76 270.825 1102.39 249.506Z" fill="#2F2F2F"/>
<g filter="url(#filter0_d_315_53)">
<path d="M1335.56 758.322C1242.49 749.221 1190.56 795.034 1193.96 881.925C1192.62 881.925 1191.07 882.407 1190.04 881.868C1099.78 834.298 1012.78 842.434 929.173 898.113C846.421 953.224 798.823 1032.6 773.989 1127.18C773.62 1128.54 773.28 1129.87 772.855 1131.2C772.77 1131.46 772.288 1131.57 771.012 1132.31C767.043 1119.61 763.329 1107.05 759.19 1094.63C724.831 991.722 660.279 914.414 560.404 870.897C493.329 841.669 424.639 841.045 358.613 878.126C355.863 879.685 352.745 880.621 347.557 882.804C353.85 841.272 339.25 809.152 309.965 783.127C280.17 756.649 245.499 749.221 205.299 759.285C206.915 748.654 208.9 739.696 209.552 730.653C212.528 690.056 198.042 655.668 171.053 626.1C132.299 583.689 81.7524 564.241 27.1798 552.788C24.4015 552.193 21.5949 551.824 18.8167 551.257C16.5204 550.804 14.2524 550.237 10 549.273C13.6004 546.977 15.755 544.935 18.3064 544.028C144.83 499.605 272.346 488.889 401.137 533.964C439.182 547.288 471.047 570.989 500.502 598.006C547.59 641.21 596.72 681.665 652.681 713.076C661.923 718.264 671.392 723.055 681.966 727.166C631.958 652.408 646.36 570.308 650.3 489.512L654.382 487.386C675.956 514.346 697.502 541.307 720.238 569.741C750.912 558.883 783.712 558.798 816.768 568.721C819.858 569.656 825.84 565.631 828.561 562.342C846.28 540.853 863.488 518.967 880.781 497.138C883.644 493.538 886.139 489.597 890.732 487.018C898.386 570.337 910.718 653.145 860.143 729.263C864.423 727.052 868.789 724.954 872.985 722.601C935.665 687.646 992.308 644.244 1044.05 595.029C1101.48 540.371 1171.45 517.522 1247.31 508.506C1341.29 497.365 1432.77 510.491 1521.88 541.534C1526.13 543.008 1530.21 544.964 1535.71 547.232C1508.3 554.999 1482.44 561.236 1457.32 569.713C1411.54 585.163 1374.4 612.322 1349.65 654.704C1332.53 684.046 1326.77 715.344 1334.4 748.768C1335.02 751.461 1335.05 754.296 1335.51 758.322H1335.56ZM311.468 701.112C314.785 698.221 318.413 695.953 320.88 692.806C344.552 662.359 374.319 639.906 409.16 623.69C412.307 622.216 413.781 617.141 416.049 613.74C411.655 612.577 406.297 609.204 403.008 610.621C390.931 615.781 378.117 620.855 368.167 629.077C346.848 646.682 327.003 666.073 306.989 685.18C304.522 687.533 303.927 692.551 303.927 696.321C303.927 697.739 308.179 699.128 311.468 701.084V701.112ZM1133.18 608.863C1131.16 610.649 1126.71 613.428 1127.08 614.477C1128.33 617.935 1130.65 622.103 1133.74 623.662C1167.56 640.615 1196.2 663.975 1221.48 691.956C1224.55 695.329 1231.01 695.641 1235.89 697.37C1234.98 692.523 1235.6 686.512 1232.94 683.025C1208.56 651.331 1176.98 628.651 1141 611.812C1138.9 610.819 1136.63 610.167 1133.18 608.892V608.863ZM688.799 632.535C698.551 661.65 712.811 671.09 743.655 669.559C734.044 644.555 713.264 636.476 688.799 632.535ZM852.035 633.272C828.703 637.553 806.676 642.656 800.609 670.297C833.409 668.851 843.955 661.367 852.035 633.272Z" fill="#2F2F2F"/>
<g filter="url(#filter1_i_315_53)">
<path d="M819.14 643.207C802.888 651.761 800.75 670.15 800.75 670.15C800.75 670.15 819.14 671.006 833.252 663.308C847.365 655.61 852.04 633.268 852.04 633.268C852.04 633.268 835.391 634.654 819.14 643.207Z" fill="#2F2F2F"/>
</g>
<g filter="url(#filter2_i_315_53)">
<path d="M722.03 642.883C738.282 651.436 743.713 669.559 743.713 669.559C743.713 669.559 722.03 672.288 707.918 662.983C693.805 653.678 688.703 632.516 688.703 632.516C688.703 632.516 705.779 634.33 722.03 642.883Z" fill="#2F2F2F"/>
</g>
</g>
<defs>
<filter id="filter0_d_315_53" x="0" y="479.018" width="1545.71" height="665.29" filterUnits="userSpaceOnUse" color-interpolation-filters="sRGB">
<feFlood flood-opacity="0" result="BackgroundImageFix"/>
<feColorMatrix in="SourceAlpha" type="matrix" values="0 0 0 0 0 0 0 0 0 0 0 0 0 0 0 0 0 0 127 0" result="hardAlpha"/>
<feOffset dy="2"/>
<feGaussianBlur stdDeviation="5"/>
<feComposite in2="hardAlpha" operator="out"/>
<feColorMatrix type="matrix" values="0 0 0 0 1 0 0 0 0 0.992157 0 0 0 0 0.815686 0 0 0 1 0"/>
<feBlend mode="normal" in2="BackgroundImageFix" result="effect1_dropShadow_315_53"/>
<feBlend mode="normal" in="SourceGraphic" in2="effect1_dropShadow_315_53" result="shape"/>
</filter>
<filter id="filter1_i_315_53" x="800.75" y="633.268" width="51.2896" height="36.9111" filterUnits="userSpaceOnUse" color-interpolation-filters="sRGB">
<feFlood flood-opacity="0" result="BackgroundImageFix"/>
<feBlend mode="normal" in="SourceGraphic" in2="BackgroundImageFix" result="shape"/>
<feColorMatrix in="SourceAlpha" type="matrix" values="0 0 0 0 0 0 0 0 0 0 0 0 0 0 0 0 0 0 127 0" result="hardAlpha"/>
<feOffset/>
<feGaussianBlur stdDeviation="10.25"/>
<feComposite in2="hardAlpha" operator="arithmetic" k2="-1" k3="1"/>
<feColorMatrix type="matrix" values="0 0 0 0 1 0 0 0 0 0.992157 0 0 0 0 0.815686 0 0 0 1 0"/>
<feBlend mode="normal" in2="shape" result="effect1_innerShadow_315_53"/>
</filter>
<filter id="filter2_i_315_53" x="688.703" y="632.516" width="55.0103" height="37.416" filterUnits="userSpaceOnUse" color-interpolation-filters="sRGB">
<feFlood flood-opacity="0" result="BackgroundImageFix"/>
<feBlend mode="normal" in="SourceGraphic" in2="BackgroundImageFix" result="shape"/>
<feColorMatrix in="SourceAlpha" type="matrix" values="0 0 0 0 0 0 0 0 0 0 0 0 0 0 0 0 0 0 127 0" result="hardAlpha"/>
<feOffset/>
<feGaussianBlur stdDeviation="10.25"/>
<feComposite in2="hardAlpha" operator="arithmetic" k2="-1" k3="1"/>
<feColorMatrix type="matrix" values="0 0 0 0 1 0 0 0 0 0.992157 0 0 0 0 0.815686 0 0 0 1 0"/>
<feBlend mode="normal" in2="shape" result="effect1_innerShadow_315_53"/>
</filter>
</defs>
</svg>
