<svg width="1530" height="1530" viewBox="0 0 1530 1530" fill="none" xmlns="http://www.w3.org/2000/svg">
<circle cx="765" cy="765" r="765" fill="black"/>
<path fill-rule="evenodd" clip-rule="evenodd" d="M763.79 1226C898.583 1226 1019.84 1167.89 1104.01 1075.29L1081.62 1050.5C1053.9 1019.83 1006.65 1017.21 975.713 1044.63L927.938 1086.97C862.945 1144.57 764.159 1140.94 703.569 1078.72L673.698 1048.04C645.012 1018.58 598.008 1017.56 568.063 1045.74L480.442 1128.18C558.557 1189.47 656.919 1226 763.79 1226ZM1146.36 991.996L1157.23 1004.03C1199.6 934.205 1224 852.212 1224 764.5C1224 658.145 1188.12 560.192 1127.84 482.148C1116.64 485.028 1105.93 490.541 1096.68 498.738L1048.91 541.079C983.916 598.682 885.129 595.052 824.539 532.831L794.668 502.155C765.98 472.698 718.978 471.671 689.033 499.847L566.116 615.507L506.318 551.957L629.235 436.297C693.853 375.495 795.283 377.711 857.182 441.277L887.053 471.954C915.135 500.787 960.911 502.47 991.031 475.775L1038.8 433.435C1046.82 426.329 1055.35 420.158 1064.25 414.915C983.622 345.173 878.617 303 763.79 303C532.921 303 341.758 473.478 308.653 695.75C371.651 659.384 453.45 668.892 506.365 723.23L540.911 758.705C567.764 786.283 611.08 789.191 641.378 765.452L743.788 685.222C805.255 637.066 892.273 639.395 951.074 690.77L1090.52 812.604L1033.11 878.315L893.661 756.484C866.412 732.674 826.086 731.595 797.604 753.914L695.193 834.146C629.812 885.367 536.34 879.089 478.395 819.585L443.849 784.11C415.163 754.651 368.16 753.624 338.215 781.801L306 812.112C315.963 909.59 356.179 998.08 417.079 1067.99L508.266 982.183C572.884 921.382 674.313 923.595 736.212 987.165L766.087 1017.84C794.165 1046.67 839.945 1048.36 870.061 1021.66L917.836 979.323C984.594 920.153 1086.55 925.809 1146.36 991.996Z" fill="url(#paint0_linear_176_17)"/>
<defs>
<linearGradient id="paint0_linear_176_17" x1="765" y1="303" x2="947.359" y2="1225.63" gradientUnits="userSpaceOnUse">
<stop stop-color="#780000"/>
<stop offset="1" stop-color="#C1121F"/>
</linearGradient>
</defs>
</svg>
