<svg width="1570" height="1570" viewBox="0 0 1570 1570" fill="none" xmlns="http://www.w3.org/2000/svg">
<circle cx="785" cy="785" r="785" fill="black"/>
<path d="M1137.2 609.51L1138.65 608.901C1142.95 607.061 1146.11 606.057 1148.59 605.741L1151.32 605.278C1156.92 604.128 1162.7 603.552 1168.48 603.552C1203.23 603.552 1232.26 592.731 1252.42 572.262C1266.91 557.525 1276.04 538.399 1279.23 516.26L1281 516.283V389H1068.72V481.088C1068.21 487.723 1068.25 493.827 1068.29 499.233C1068.34 505.168 1068.37 510.776 1067.66 515.03L1067.46 516.384C1065.06 534.371 1056.36 551.071 1042.97 563.404C1029.25 576.042 1022.83 578.818 1020.72 579.416C1018.59 580.025 1015.5 579.743 1006.56 578.536C998.858 577.497 988.301 576.076 975.422 576.076C920.409 576.076 874.301 617.578 868.164 672.655C866.796 685.18 867.57 694.546 868.128 701.372C868.757 708.966 868.947 711.257 866.315 718.817C861.098 733.677 849.989 747.469 835.043 757.633C820.094 767.8 802.882 773.41 786.601 773.41L785.012 773.387L783.42 773.41C767.139 773.41 749.93 767.813 734.981 757.633C720.023 747.469 708.913 733.677 703.719 718.852C701.074 711.257 701.254 708.955 701.893 701.35C702.454 694.523 703.225 685.169 701.861 672.61C695.736 617.567 649.625 576.064 594.612 576.064C581.733 576.064 571.175 577.486 563.415 578.536C554.547 579.732 551.445 580.014 549.317 579.405C547.201 578.795 540.785 576.031 527.068 563.382C513.676 551.059 504.987 534.359 502.579 516.373L502.378 515.019C502.031 512.954 501.863 510.573 501.784 507.989V389H289.459V496.885C289.213 527.273 298.943 553.339 317.576 572.273C337.72 592.742 366.744 603.552 401.5 603.552C407.278 603.552 413.045 604.139 418.666 605.29L421.387 605.741C423.862 606.068 427.019 607.073 431.353 608.912L432.775 609.51C447.163 615.242 459.772 624.845 469.234 637.291C492.524 667.893 492.591 710.715 469.413 741.407C461.821 751.471 451.945 759.868 440.87 765.702L439.874 766.245C436.839 767.912 434.129 769.154 431.644 770.023C430.535 770.408 429.539 770.722 428.609 770.995L427.557 771.309C419.181 774.019 410.413 775.382 401.512 775.382C334.215 775.382 289 817.088 289 879.16C289 927.614 310.924 952.756 329.311 965.313C351.75 980.638 378.814 984.981 404.725 987.374L406.517 987.579C413.392 988.48 419.192 989.901 425.855 992.316L429.068 993.548L429.617 993.75C447.063 999.754 461.675 1012.02 470.779 1028.3C475.918 1037.5 479.479 1049.54 480.8 1062.19C481.316 1067.16 481.663 1071.98 481.998 1076.74C482.256 1080.36 482.547 1084.43 482.939 1088.51V1181.96H695.219V1057.18L693.72 1057.15C690.224 1033.15 678.916 1011.17 661.023 994.099C659.444 992.611 657.99 991.347 656.825 990.34L656.106 989.721C633.263 969.771 603.558 969.242 581.858 968.845H581.621C577.994 968.777 574.556 968.71 571.522 968.565L568.263 968.056L561.287 966.487L554.715 964.444L547.627 961.602C540.203 958.206 533.272 953.783 527.124 948.513L525.747 947.317C506.107 929.622 496.365 907.811 495.962 880.651C496.018 861.244 502.176 842.849 513.777 827.448C525.086 812.44 541.11 801.269 558.891 795.986C576.896 790.649 610.479 790.515 626.67 795.73C656.173 805.217 677.115 832.502 678.758 863.624C678.893 866.196 678.794 868.893 678.681 872.053C678.344 881.181 677.885 893.683 683.114 909.492C697.906 953.478 738.824 983.143 785.044 983.323C831.146 983.143 872.048 953.465 886.875 909.415C892.081 893.696 891.622 881.193 891.285 872.02C891.173 868.893 891.073 866.196 891.208 863.636C892.855 832.515 913.794 805.217 943.297 795.74C959.491 790.528 993.061 790.662 1011.07 795.999C1028.86 801.291 1044.89 812.463 1056.19 827.47C1067.79 842.872 1073.95 861.266 1074 880.674C1073.6 907.834 1063.86 929.647 1044.21 947.349L1042.95 948.446C1036.71 953.792 1029.76 958.228 1022.34 961.625L1015.26 964.466L1008.69 966.51L1002.98 967.841L998.457 968.588C995.433 968.732 991.986 968.8 988.355 968.87H988.121C966.421 969.265 936.713 969.794 913.928 989.699L913.142 990.388C911.98 991.392 910.535 992.643 908.921 994.167C891.69 1010.61 880.561 1031.7 876.673 1054.75H874.77V1182H1087.05V1088.55C1087.44 1084.47 1087.73 1080.4 1087.99 1076.78C1088.33 1072.09 1088.67 1067.25 1089.19 1062.24C1090.51 1049.57 1094.07 1037.53 1099.21 1028.33C1108.32 1012.06 1122.93 999.799 1140.37 993.782L1144.14 992.351C1150.8 989.946 1156.6 988.525 1163.48 987.611L1165.26 987.409C1191.17 985.016 1218.24 980.67 1240.68 965.348C1274 942.599 1280.99 905.938 1280.99 879.195C1280.99 817.123 1235.77 775.418 1168.48 775.418C1159.58 775.418 1150.81 774.042 1142.43 771.344L1141.38 771.027C1140.45 770.757 1139.46 770.44 1138.41 770.081C1135.86 769.199 1133.15 767.948 1130.05 766.245L1129.12 765.735C1118.05 759.9 1108.17 751.507 1100.57 741.442C1077.39 710.751 1077.45 667.927 1100.75 637.325C1110.21 624.89 1122.82 615.276 1137.2 609.555V609.51Z" fill="white"/>
</svg>
