<svg width="1569" height="1569" viewBox="0 0 1569 1569" fill="none" xmlns="http://www.w3.org/2000/svg">
<g clip-path="url(#clip0_307_2)">
<circle cx="785" cy="788" r="785" fill="black"/>
<path d="M1089.48 787.58H796.408V1081H1089.48V787.58ZM503.2 494C664.947 494 796.267 625.478 796.267 787.416H503.2V494ZM503.199 787.58L334 1081H672.399L503.199 787.58ZM1090.56 787.327C1171.44 787.327 1237 721.682 1237 640.709C1237 559.736 1171.44 494.094 1090.56 494.094C1009.69 494.094 944.122 559.736 944.122 640.709C944.122 721.682 1009.69 787.327 1090.56 787.327Z" fill="#FFFF00"/>
<path d="M785 1572.98C575.32 1572.98 378.184 1491.34 229.925 1343.05C81.6422 1194.79 0 997.658 0 787.978C0 578.296 81.6422 381.184 229.925 232.925C378.184 84.6422 575.32 3 785 3C994.681 3 1191.82 84.6422 1340.07 232.925C1488.34 381.184 1570 578.32 1570 788C1570 997.681 1488.36 1194.82 1340.07 1343.07C1191.82 1491.34 994.681 1573 785 1573V1572.98ZM785 100.257C601.306 100.257 428.597 171.788 298.716 301.692C168.835 431.597 97.2805 604.282 97.2805 787.978C97.2805 971.668 168.811 1144.38 298.716 1274.26C428.62 1404.16 601.306 1475.7 785 1475.7C968.697 1475.7 1141.4 1404.16 1271.28 1274.26C1401.16 1144.36 1472.72 971.668 1472.72 787.978C1472.72 604.282 1401.19 431.573 1271.28 301.692C1141.38 171.811 968.697 100.257 785 100.257Z" fill="#FFFF00"/>
</g>
<defs>
<clipPath id="clip0_307_2">
<rect width="1569" height="1569" fill="white"/>
</clipPath>
</defs>
</svg>
