<svg width="1530" height="1530" viewBox="0 0 1530 1530" fill="none" xmlns="http://www.w3.org/2000/svg">
<circle cx="765" cy="765" r="765" fill="black"/>
<path d="M1017.13 611.792H935.8C926.324 611.792 917.309 607.725 911.036 600.647L878.043 563.376C873.133 557.814 866.055 554.649 858.65 554.649C851.246 554.649 844.168 557.833 839.257 563.376L810.964 595.353C801.699 605.807 788.406 611.811 774.441 611.811H329.246C316.567 647.95 308.299 686.122 305 725.714H725.278C732.663 725.714 739.741 722.702 744.843 717.37L783.975 676.531C788.866 671.429 795.618 668.551 802.677 668.551H804.288C811.712 668.551 818.771 671.736 823.681 677.298L856.655 714.569C862.928 721.666 871.943 725.714 881.419 725.714H1224.47C1221.17 686.103 1212.9 647.931 1200.22 611.811H1017.11L1017.13 611.792Z" fill="white"/>
<path d="M559.336 965.221C566.721 965.221 573.799 962.209 578.902 956.877L618.033 916.038C622.925 910.936 629.677 908.058 636.736 908.058H638.347C645.77 908.058 652.829 911.243 657.74 916.786L690.714 954.057C696.986 961.154 706.002 965.202 715.478 965.202H1180.37C1197.79 929.216 1210.55 890.603 1218.14 850.148H771.911C762.435 850.148 753.42 846.081 747.147 839.003L714.173 801.733C709.263 796.17 702.185 793.005 694.78 793.005C687.376 793.005 680.298 796.189 675.387 801.733L647.094 833.709C637.829 844.163 624.536 850.167 610.552 850.167H311.332C318.928 890.622 331.703 929.235 349.101 965.221H559.317H559.336Z" fill="white"/>
<path d="M889.15 487.301C896.535 487.301 903.613 484.289 908.716 478.957L947.847 438.118C952.739 433.016 959.491 430.138 966.55 430.138H968.161C975.584 430.138 982.643 433.323 987.554 438.885L1020.53 476.156C1026.8 483.253 1035.82 487.301 1045.29 487.301H1133.7C1049.51 375.393 915.602 303 764.755 303C613.908 303 479.998 375.393 395.789 487.301H889.15Z" fill="white"/>
<path d="M711.563 1079.24H590.659C581.183 1079.24 572.167 1075.17 565.895 1068.09L532.921 1030.82C528.01 1025.26 520.932 1022.1 513.528 1022.1C506.124 1022.1 499.046 1025.28 494.135 1030.82L465.841 1062.8C456.577 1073.25 443.283 1079.26 429.3 1079.26H427.42C511.648 1169.51 631.593 1226 764.774 1226C897.955 1226 1017.88 1169.51 1102.13 1079.26H711.563V1079.24Z" fill="white"/>
</svg>
