<svg width="1530" height="1530" viewBox="0 0 1530 1530" fill="none" xmlns="http://www.w3.org/2000/svg">
<circle cx="765" cy="765" r="765" fill="black"/>
<path fill-rule="evenodd" clip-rule="evenodd" d="M1000.01 654.062L999.992 654.106C1040.79 705.26 1065.17 770.051 1065.17 840.521C1065.17 912.039 1040.06 977.709 998.161 1029.21L994.553 1033.64L993.597 1028.01C992.784 1023.22 991.827 1018.38 990.717 1013.5C969.749 921.372 901.433 842.373 788.993 778.408C713.064 735.332 669.602 683.463 658.191 624.53C650.822 586.422 656.301 548.145 666.889 515.359C677.474 482.584 693.22 455.124 706.597 438.592L706.606 438.581L750.345 385.097C758.016 375.718 772.371 375.718 780.042 385.097L1000.01 654.062ZM1069.19 600.627L1069.2 600.607L776.029 242.133C770.432 235.289 759.952 235.289 754.354 242.133L461.18 600.611L461.188 600.631L460.235 601.814C406.285 668.76 374 753.837 374 846.449C374 1062.14 549.139 1237 765.192 1237C981.245 1237 1156.38 1062.14 1156.38 846.449C1156.38 753.838 1124.1 668.761 1070.15 601.814L1069.19 600.627ZM531.328 652.907L531.34 652.893L557.562 620.828L558.355 626.748C558.983 631.437 559.744 636.15 560.647 640.884C577.614 729.906 638.225 804.135 739.56 861.624C827.645 911.757 878.93 969.405 893.708 1032.63C899.873 1059.02 900.972 1084.98 898.302 1107.67L898.136 1109.08L896.866 1109.7C857.11 1129.12 812.418 1140.02 765.183 1140.02C599.509 1140.02 465.197 1005.93 465.197 840.521C465.197 769.502 489.956 704.245 531.328 652.907Z" fill="white"/>
</svg>
