<svg width="737" height="673" viewBox="0 0 737 673" fill="none" xmlns="http://www.w3.org/2000/svg">
<path fill-rule="evenodd" clip-rule="evenodd" d="M735.39 80.8158C745.986 29.1568 695.246 -13.7729 646.056 5.23278L43.0831 238.2C-11.8496 259.424 -14.2973 336.239 39.1725 360.916L170.483 421.523L232.949 640.153C236.194 651.509 245.206 660.303 256.639 663.266C268.072 666.226 280.219 662.919 288.57 654.566L384.793 558.343L519.583 659.436C558.71 688.779 615.063 667.406 624.89 619.496L735.39 80.8158ZM67.1098 300.386L670.083 67.4194L559.583 606.103L401.666 487.663C388.396 477.709 369.826 479.029 358.096 490.759L316.883 531.973L329.266 463.869L571.903 221.234C583.713 209.425 584.96 190.701 574.823 177.43C564.686 164.159 546.296 160.437 531.796 168.722L196.708 360.199L67.1098 300.386ZM237.565 413.636L257.777 484.383L265.538 441.699C266.751 435.029 269.969 428.886 274.763 424.093L348.76 350.099L237.565 413.636Z" fill="#FFFDD0"/>
</svg>
