<svg width="1784" height="1754" viewBox="0 0 1784 1754" fill="none" xmlns="http://www.w3.org/2000/svg">
<path d="M154.054 1031.43C171.19 1042.33 185.508 1052.38 200.854 1060.56C204.666 1062.58 213.283 1060.3 217.029 1056.95C241.655 1034.97 263.464 1038.62 289.914 1056.72C307.116 1068.48 316.96 1078.46 312.618 1099.18C308.905 1116.91 318.053 1125.23 332.206 1135.5C357.064 1153.53 377.68 1155.29 402.406 1136.3C419.774 1122.94 439.926 1113.1 459.448 1102.82C464.121 1100.37 472.341 1100.14 476.849 1102.62C507.309 1119.36 537.437 1136.73 567.068 1154.92C571.874 1157.87 576.15 1165.9 576.216 1171.63C576.713 1208.62 576.514 1245.64 575.122 1282.63C574.89 1289.23 569.587 1298.08 563.919 1301.66C539.658 1316.94 514.6 1330.96 489.41 1344.71C480.992 1349.28 477.644 1354.72 478.042 1364.3C478.738 1381.37 478.241 1398.5 478.241 1415.08C488.383 1421.8 498.824 1427.04 507.043 1434.7C513.672 1440.86 521.693 1449.68 522.058 1457.63C523.152 1480.27 539.525 1487.13 555.136 1495.65C570.084 1503.84 585.165 1511.79 599.152 1519.25C620.099 1506.12 640.318 1492.93 661.199 1480.87C664.878 1478.75 672.07 1479.87 676.313 1482.06C692.951 1490.71 709.556 1499.63 725.068 1510.07C730.305 1513.58 736.205 1522.56 735.244 1527.87C728.482 1564.89 746.214 1585.44 778.53 1597.67C783.999 1599.76 789.07 1602.94 790.33 1603.57C799.378 1594.32 805.477 1585.7 813.664 1580.17C831.462 1568.14 850.885 1558.46 868.484 1546.16C874.086 1542.25 879.422 1533.1 879.223 1526.51C878.494 1498.14 875.213 1469.83 873.986 1441.43C873.754 1435.72 876.97 1427.94 881.278 1424.59C884.792 1421.87 894.337 1422.1 897.585 1425.05C902.126 1429.16 905.706 1437.08 905.507 1443.25C904.579 1471.09 901.496 1498.87 900.834 1526.71C900.701 1532.87 905.805 1541.29 911.108 1545C926.421 1555.71 942.728 1565.19 959.301 1573.9C973.652 1581.46 989.628 1586.76 980.281 1613.41C1004.71 1598.63 1024.16 1587.56 1042.66 1575C1046.24 1572.58 1047.86 1563.96 1046.93 1558.82C1040.94 1526.28 1055.95 1509.17 1083.66 1493.03C1108.15 1478.75 1126.22 1478.38 1147 1495.19C1152.96 1500.03 1160.99 1502.61 1166.22 1508.01C1178.02 1520.21 1189.16 1518.69 1201.98 1510C1210.14 1504.47 1219.39 1500.46 1228.27 1496.05C1244.44 1488.03 1259.42 1481.3 1259.92 1457.87C1260.29 1440.13 1274.47 1426.91 1291.64 1420.81C1301.65 1417.23 1303.27 1411.53 1303.34 1402.28C1303.67 1354.26 1303.87 1354.26 1262.64 1329.6C1246.53 1319.95 1229.93 1311.04 1214.58 1300.33C1209.41 1296.72 1204.54 1288.7 1204.4 1282.53C1203.48 1246.64 1204.27 1210.74 1203.77 1174.84C1203.64 1164.87 1206.59 1159 1215.64 1153.9C1244.01 1137.92 1272.09 1121.38 1299.5 1103.82C1309.01 1097.72 1315.5 1098.25 1324.65 1103.88C1350.01 1119.53 1375.89 1134.28 1401.78 1149.02C1405.79 1151.31 1412.09 1154.29 1415.2 1152.74C1431.44 1144.58 1447.45 1135.73 1462.4 1125.49C1465.75 1123.21 1466.38 1114.12 1465.38 1108.69C1460.18 1080.08 1472.48 1063.71 1497.37 1049.89C1516.49 1039.25 1531.24 1034.01 1548.74 1049.96C1563.66 1063.55 1578.64 1062.42 1594.15 1049.56C1602.87 1042.33 1613.28 1037.16 1624.21 1030.27C1619.64 1027.22 1617.19 1024.73 1614.24 1023.77C1586.56 1014.79 1578.51 995.731 1582.29 967.956C1584.7 950.025 1583.91 931.497 1582.82 913.367C1582.02 900.176 1587.32 893.48 1598.66 887.912C1616.95 878.897 1634.85 868.887 1651.92 857.784C1657.22 854.337 1661.5 846.349 1662.46 839.886C1664.12 828.55 1661.93 816.651 1663.22 805.217C1663.89 799.35 1668.06 789.572 1671.58 789.175C1682.78 787.816 1683.84 797.063 1683.64 806.078C1683.41 816.552 1684.4 827.125 1683.57 837.532C1682.75 848.304 1686.49 854.801 1696.3 859.806C1714.96 869.318 1733.36 879.46 1751.06 890.663C1755.9 893.746 1760.4 901.369 1760.6 907.07C1761.6 935.209 1760.6 963.415 1761.33 991.555C1761.6 1002.06 1757.22 1007.33 1748.67 1012.2C1726.17 1025.06 1703.76 1038.22 1682.12 1052.47C1673.13 1058.41 1666.41 1058.77 1658.62 1051.94C1648.57 1043.09 1640.22 1045.98 1627.96 1051.15C1590.44 1067.06 1573.93 1092.55 1580.53 1132.92C1582.25 1143.56 1576.45 1149.52 1567.54 1155.19C1522 1184.32 1522 1184.85 1477.98 1153.13C1470.49 1147.73 1465.65 1148.23 1457.5 1151.34C1430.15 1161.85 1416.66 1178.19 1421.14 1209.71C1424.52 1233.54 1422.59 1258.27 1421.3 1282.5C1420.94 1289.33 1416 1298.34 1410.33 1301.99C1386.7 1317.23 1362.21 1331.15 1337.61 1344.84C1326.84 1350.84 1320.44 1357.97 1322.86 1370.96C1323.56 1374.71 1323.26 1378.68 1322.96 1382.53C1321.31 1402.05 1321.74 1417.83 1344.54 1428.86C1364.66 1438.61 1373.71 1460.52 1368.4 1484.22C1363.33 1506.85 1349.98 1523.52 1326.28 1528.07C1302.31 1532.67 1281.27 1527.14 1267.38 1504.76C1266.25 1502.98 1264.56 1501.55 1263.07 1499.89C1238.68 1513.78 1215.08 1527.97 1190.72 1540.79C1180.97 1545.93 1176.3 1551.96 1178.29 1562.77C1182.3 1584.58 1171.96 1595.68 1153.79 1608.08C1125.75 1627.2 1101.95 1630.22 1076.93 1606.65C1061.35 1591.97 1048.46 1597.64 1030.73 1605.56C992.611 1622.56 973.818 1647.02 982.667 1689.35C984.656 1698.79 979.85 1704.33 971.763 1709.03C947.899 1722.89 924.764 1738 900.635 1751.36C895.298 1754.31 885.62 1754.58 880.417 1751.66C855.459 1737.54 831.064 1722.33 807.233 1706.38C802.328 1703.1 798.616 1695.31 797.787 1689.15C796.296 1677.75 796.13 1665.85 797.655 1654.45C799.942 1637.11 791.457 1628.53 778.199 1618.88C745.585 1595.15 715.025 1588.99 683.704 1620.07C673.097 1630.61 661.729 1630.52 650.493 1620.17C647.709 1617.59 644.229 1615.43 640.715 1614.01C614.001 1603.04 596.832 1586.67 603.792 1554.48C604.555 1550.97 599.815 1544.34 595.937 1542.05C570.747 1527.3 545.06 1513.38 524.444 1501.88C506.579 1511.96 492.791 1523.86 477.081 1527.7C449.736 1534.4 424.083 1516.83 416.625 1491.14C408.604 1463.53 420.47 1433.24 445.461 1422.5C456.001 1417.96 457.161 1412.06 458.851 1401.88C464.983 1364.9 450.963 1341.76 416.426 1328.24C401.71 1322.47 389.016 1311.63 374.598 1304.84C361.605 1298.71 357.992 1289.86 358.291 1276.13C358.954 1245.77 357.628 1215.38 357.992 1185.02C358.125 1174.75 354.645 1168.94 345.431 1164.54C333.565 1158.84 322.428 1151.61 311.623 1145.41C295.283 1155.72 279.871 1166.49 263.365 1175.24C258.029 1178.06 249.709 1176.27 243.047 1175.08C239.004 1174.35 235.755 1169.94 231.679 1168.51C201.086 1157.74 190.381 1135.93 196.015 1105.04C199.296 1087.14 191.971 1075.81 175.664 1068.72C168.141 1065.43 160.948 1060.93 154.386 1055.99C142.288 1046.87 131.019 1043.13 117.661 1054.46C114.645 1057.02 105.895 1055.92 101.619 1053.4C78.3189 1039.75 55.2503 1025.59 32.9109 1010.45C27.6078 1006.83 22.4704 998.847 22.2052 992.682C21.012 963.449 21.0451 934.149 21.9069 904.915C22.0726 899.844 27.2763 893.149 31.9829 890.299C48.4557 880.289 65.6577 871.406 82.7934 862.49C94.0957 856.624 100.592 848.868 99.1668 835.047C98.0399 824.109 98.2056 812.906 99.3657 801.968C99.8297 797.66 104.569 793.848 107.354 789.804C110.966 793.715 117.164 797.328 117.661 801.604C119.087 814.166 117.197 827.092 118.689 839.621C119.418 845.653 123.429 853.309 128.367 856.425C147.028 868.125 166.45 878.764 186.072 888.774C194.888 893.282 197.208 899.214 197.043 908.462C196.645 936.071 196.479 963.714 197.44 991.29C197.838 1002.89 194.026 1009.78 183.685 1014.66C174.438 1019 165.821 1024.77 154.087 1031.56L154.054 1031.43ZM45.7047 904.484C64.1993 914.892 80.639 924.802 97.7747 933.32C102.912 935.872 111.132 936.867 115.938 934.48C129.66 927.652 142.42 918.836 155.38 910.583C163.666 905.313 163.732 899.347 155.513 894.011C141.691 885.029 127.903 876.013 113.618 867.827C110.834 866.236 105.166 867.296 102.05 869.152C83.7215 880.19 65.7571 891.823 45.7047 904.484ZM243.909 1068.75C250.405 1067.09 257.167 1065.37 264.193 1063.58C253.322 1052.01 244.439 1054.6 220.111 1075.71C248.417 1097.55 262.503 1099.04 276.523 1080.55C265.486 1076.57 254.847 1072.73 243.876 1068.75H243.909ZM393.954 1163.31C394.783 1164.67 395.612 1166.03 396.44 1167.39C421.398 1152.6 446.389 1137.82 471.347 1123.07C470.319 1121.38 469.292 1119.69 468.264 1118C443.505 1133.12 418.713 1148.2 393.954 1163.31ZM896.425 1558.89C895.431 1557.17 894.47 1555.48 893.475 1553.75C871.103 1567.18 848.73 1580.6 826.358 1594.02C827.021 1595.15 827.65 1596.28 828.313 1597.4L896.425 1558.86V1558.89ZM1315.31 1121.05C1314.48 1119.76 1313.65 1118.47 1312.82 1117.17C1294.46 1129.2 1276.1 1141.24 1257.73 1153.23C1258.46 1154.39 1259.23 1155.55 1259.95 1156.71L1315.31 1121.05ZM1632.66 894.11C1648.94 886.487 1665.21 878.864 1683.71 870.213C1658.95 863.849 1648.44 886.586 1632.66 894.11Z" fill="#FFFDD0"/>
<path d="M413.875 523.82C370.953 523.82 327.931 523.654 284.91 524.085C280.435 524.118 275.928 529.587 271.619 529.322C263.034 528.791 252.528 528.36 246.794 523.323C243.148 520.108 243.777 504.629 247.556 502.011C253.787 497.702 264.261 498.232 272.812 498.762C280.568 499.26 288.158 504.132 295.847 504.264C331.18 504.861 366.545 504.165 401.877 504.563C411.29 504.662 415.599 501.116 421.134 493.36C429.055 482.256 441.153 474.169 451.229 464.557C454.312 461.607 457.725 458.127 458.852 454.249C460.178 449.642 458.455 444.273 459.316 439.434C465.15 406.157 454.411 382.425 421.929 369.035C416.759 366.913 414.439 357.5 411.257 351.236C410.362 349.479 411.058 346.894 410.992 344.674C409.898 285.113 409.798 284.914 463.824 258.796C468.597 256.476 477.977 256.575 481.391 259.691C508.669 284.814 535.648 286.074 563.622 261.448C564.815 260.387 566.439 259.658 567.997 259.127C596.999 249.284 611.814 230.921 604.92 198.937C602.534 187.9 608.268 181.636 618.344 177.658C626.53 174.443 635.347 171.195 641.81 165.594C663.122 147.132 683.572 150.347 703.426 166.654C722.55 182.332 739.056 178.818 761.164 169.173C790.596 156.346 803.423 139.443 797.225 108.386C788.906 66.7897 804.152 39.81 844.787 25.2264C861.558 19.1941 876.076 0.334902 891.886 0.00345698C906.801 -0.294844 921.119 18.7964 937.393 24.5304C978.061 38.8489 993.639 65.464 985.386 107.359C979.752 135.962 991.783 152.203 1017.93 166.522C1042.59 180.011 1061.42 187.071 1084.22 166.157C1101.36 150.447 1120.48 147.662 1139.24 164.864C1139.64 165.229 1140.14 165.527 1140.67 165.693C1171.06 175.272 1184.82 194.562 1178.75 227.242C1177.82 232.247 1182.89 240.931 1187.67 243.947C1207.75 256.542 1228.47 268.242 1249.68 278.815C1255.18 281.566 1265.69 281.831 1269.97 278.351C1297.57 255.912 1323.33 253.327 1353.92 275.07C1367.54 284.748 1375.2 291.974 1372.08 308.215C1371.79 309.805 1371.82 311.562 1372.08 313.186C1377.42 348.087 1369.73 375.564 1332.01 387.861C1327.7 389.253 1324.19 397.672 1323.13 403.339C1321.64 411.327 1323.13 419.845 1322.7 428.131C1321.57 447.521 1319.85 466.413 1344.57 474.235C1350.47 476.125 1356.9 483.483 1358.76 489.648C1363.2 504.231 1372.75 504.927 1385.27 504.596C1413.98 503.8 1442.71 504.861 1471.42 503.9C1482.52 503.535 1493.46 498.53 1504.6 498.066C1513.11 497.702 1522.92 499.326 1529.85 503.701C1533 505.69 1533.33 520.174 1530.18 522.494C1523.52 527.366 1513.71 529.951 1505.26 529.786C1493.06 529.554 1480.96 524.549 1468.77 524.217C1439.53 523.422 1410.23 524.483 1380.97 524.151C1371.45 524.052 1366.55 526.438 1363.13 536.348C1354.62 561.174 1330.12 575.525 1304.57 572.608C1281.83 570.023 1261.58 551.263 1257.93 529.487C1253.39 502.342 1265.72 477.053 1290.48 467.076C1300.52 463.033 1304.7 458.028 1303.34 447.753C1303.21 446.659 1303.18 445.499 1303.34 444.438C1309.9 409.869 1301.09 383.519 1265.86 369.2C1260.88 367.179 1255.61 356.473 1256.54 350.805C1262.67 313.783 1244.84 294.625 1213.35 278.451C1188.96 265.922 1169.57 259.127 1147.46 279.776C1126.62 299.299 1107.26 297.111 1082.1 281.865C1056.81 266.519 1042.89 251.272 1048.99 221.409C1051.41 209.643 1043.92 204.273 1035.43 196.517C1006.27 169.836 979.752 172.62 950.551 195.855C935.603 207.753 911.706 212.593 903.088 227.209C894.537 241.727 899.608 264.563 899.509 283.721C899.277 335.095 899.111 386.436 899.873 437.81C899.973 444.77 904.017 453.189 908.988 458.227C922.18 471.65 923.671 491.073 910.712 503.867C898.614 515.832 879.456 514.97 868.022 502.011C855.559 487.891 858.41 470.623 874.385 457.995C877.534 455.509 880.152 450.206 880.152 446.195C880.418 377.155 880.517 308.115 879.722 239.108C879.655 232.976 874.617 224.79 869.381 221.177C851.681 209.013 832.789 198.572 814.46 187.303C807.102 182.762 800.009 177.824 791.424 172.156C776.576 180.741 759.937 189.358 744.591 199.898C739.918 203.113 735.974 212.029 736.736 217.664C741.277 251.736 725.566 269.767 695.703 284.748C674.789 295.255 658.846 299.133 641.777 283.157C615.46 258.498 592.392 265.425 562.959 281.533C534.687 297.012 520.833 313.319 527.13 345.071C529.682 357.998 525.274 367.378 511.95 371.918C483.18 381.729 472.143 401.782 477.712 431.545C478.706 436.882 478.408 442.616 477.944 448.084C477.148 457.398 479.767 462.27 489.644 466.181C514.436 476.025 527.892 500.585 524.909 525.808C522.225 548.579 503.332 567.471 479.004 571.714C455.372 575.857 430.017 561.903 419.642 538.9C417.621 534.426 416.063 529.686 413.809 523.787L413.875 523.82ZM815.753 58.4042C829.574 66.1268 840.114 70.071 848.201 76.9319C877.7 102.089 905.674 99.1388 934.278 75.4736C942.564 68.6127 952.673 63.9062 964.273 56.8132C943.359 44.4835 925.362 35.7333 909.552 24.0332C896.393 14.2888 886.118 14.0236 872.96 23.1052C855.625 35.0372 837.164 45.3452 815.786 58.4373L815.753 58.4042ZM624.873 191.314C640.517 200.13 652.251 207.024 664.382 213.289C666.735 214.515 670.878 214.051 673.397 212.791C687.45 205.665 701.238 198.042 717.214 189.424C702.365 180.31 690.002 172.355 677.242 165.096C674.424 163.505 669.32 162.876 666.801 164.367C653.676 172.156 641.015 180.774 624.873 191.314ZM1153.73 190.982C1115.74 162.942 1096.42 163.605 1072.29 193.17C1112.56 220.448 1114.02 220.415 1153.73 190.982ZM505.884 291.742C495.576 284.118 486.627 277.059 477.148 270.828C475.126 269.502 470.751 270.065 468.265 271.358C456.267 277.556 444.534 284.317 431.972 291.244C470.055 318.854 474.695 318.92 505.884 291.742ZM1277.22 291.709C1306.89 316.633 1322 316.434 1344.84 291.609C1319.81 265.425 1308.28 265.325 1277.22 291.709Z" fill="#FFFDD0"/>
<path d="M1202.38 1429.89C1189.26 1429.69 1180.57 1421.17 1180.41 1408.38C1180.21 1394.59 1190.75 1384.15 1204.17 1384.78C1215.84 1385.31 1225.92 1395.79 1226.01 1407.42C1226.08 1419.42 1214.88 1430.09 1202.38 1429.89Z" fill="#FFFDD0"/>
<path d="M595.474 1407.68C595.242 1420.18 584.669 1430.95 572.604 1430.99C560.44 1430.99 550.762 1420.05 551.591 1406.69C552.386 1393.3 559.048 1385.21 573.068 1384.98C586.459 1384.75 595.739 1394.36 595.474 1407.68Z" fill="#FFFDD0"/>
<path d="M1538.9 1286.24C1527 1285.94 1516.79 1275.57 1516.93 1263.84C1517.02 1252.8 1528.26 1242.62 1540.06 1242.89C1552.39 1243.15 1562.57 1253.36 1562.03 1264.9C1561.5 1276.27 1550.37 1286.57 1538.9 1286.28V1286.24Z" fill="#FFFDD0"/>
<path d="M651.819 402.378C639.953 402.146 630.109 391.739 630.573 379.873C631.037 367.145 640.417 358.097 652.714 358.495C664.944 358.892 674.755 368.968 674.291 380.635C673.794 392.534 663.42 402.61 651.852 402.378H651.819Z" fill="#FFFDD0"/>
<path d="M778.398 1394.13C790.131 1394.23 799.809 1404.34 800.008 1416.73C800.24 1429.03 790.297 1439.04 778.265 1438.67C766.565 1438.31 756.523 1427.94 756.423 1416.07C756.291 1404.01 766.3 1394.03 778.398 1394.13Z" fill="#FFFDD0"/>
<path d="M1128.31 401.98C1115.91 402.345 1105.77 393.098 1106.07 380.47C1106.36 367.643 1113.79 360.019 1126.45 358.76C1138.18 357.567 1149.32 368.04 1149.82 379.608C1150.31 391.904 1140.97 401.616 1128.31 401.98Z" fill="#FFFDD0"/>
<path d="M223.692 1243.39C235.723 1243.65 245.965 1253.99 245.037 1265.69C244.042 1278.85 235.557 1284.98 223.261 1285.75C211.528 1286.47 200.49 1275.54 200.722 1264.33C200.954 1252.73 211.494 1243.12 223.692 1243.39Z" fill="#FFFDD0"/>
<path d="M1000.17 1438.21C986.944 1437.91 977.1 1427.47 977.995 1415.01C978.923 1402.05 986.049 1394.73 999.473 1394.99C1011.57 1395.22 1022.24 1406.19 1020.88 1417.73C1019.39 1430.29 1011.77 1437.38 1000.14 1438.21H1000.17Z" fill="#FFFDD0"/>
<path d="M799.777 353.357C798.517 363.831 792.485 371.852 779.061 371.686C765.538 371.52 759.407 363.632 759.506 350.672C759.606 337.414 767.328 329.625 779.824 330.089C791.822 330.52 800.075 337.746 799.777 353.357Z" fill="#FFFDD0"/>
<path d="M1018.7 351.136C1017.6 364.427 1011.37 371.752 998.611 371.388C986.38 371.056 980.779 362.836 980.58 351.799C980.381 339.834 986.347 331.25 999.406 331.515C1012.07 331.78 1017.57 340.099 1018.66 351.103L1018.7 351.136Z" fill="#FFFDD0"/>
<path d="M309.171 1402.75C302.476 1407.65 295.946 1416.24 288.986 1416.6C278.313 1417.16 270.16 1407.72 273.01 1396.88C274.667 1390.55 283.815 1382.13 289.649 1382.06C296.178 1382 302.774 1390.35 309.337 1395.02C309.27 1397.61 309.204 1400.16 309.171 1402.75Z" fill="#FFFDD0"/>
<path d="M330.881 388.988C324.12 393.694 317.789 401.384 310.497 402.445C299.328 404.069 292.831 393.96 294.886 384.414C296.245 377.951 305.128 368.703 310.696 368.67C317.391 368.604 324.186 377.023 330.914 381.762V389.021L330.881 388.988Z" fill="#FFFDD0"/>
<path d="M1471.45 364.626C1476.52 371.156 1484.38 377.089 1486 384.381C1488.32 394.788 1480.6 402.444 1469.86 402.643C1459.15 402.809 1451.63 395.65 1453.12 384.911C1454.08 377.917 1460.15 371.62 1463.89 365.024C1466.41 364.892 1468.93 364.759 1471.42 364.626H1471.45Z" fill="#FFFDD0"/>
<path d="M1514.34 1402.65C1507.88 1407.19 1501.91 1414.38 1494.85 1415.67C1483.95 1417.69 1477.22 1409.44 1476.92 1398.84C1476.62 1388.96 1482.19 1380.37 1492.96 1382.63C1500.62 1384.22 1507.21 1390.98 1514.27 1395.42L1514.37 1402.65H1514.34Z" fill="#FFFDD0"/>
<path d="M123.231 1156.71C117.165 1160.73 110.702 1168.35 105.134 1167.75C99.234 1167.12 90.1524 1158.9 89.8541 1153.57C89.5558 1148.36 98.2728 1138.62 103.609 1138.19C109.873 1137.69 116.767 1145.11 123.363 1149.12C123.297 1151.64 123.264 1154.2 123.198 1156.71H123.231Z" fill="#FFFDD0"/>
<path d="M632.894 601.742C639.688 612.746 646.682 619.11 646.284 624.943C645.92 630.081 637.269 634.622 632.264 639.428C627.325 634.091 619.371 629.252 618.41 623.253C617.647 618.48 625.37 612.315 632.894 601.742Z" fill="#FFFDD0"/>
<path d="M1675.12 1130.83C1682.61 1140.27 1690.17 1145.74 1690.7 1151.84C1691.1 1156.55 1681.09 1167.02 1678.54 1166.19C1671.58 1163.94 1663.89 1158.04 1661 1151.58C1659.58 1148.36 1668.1 1140.74 1675.12 1130.83Z" fill="#FFFDD0"/>
<path d="M1165.49 628.855C1159.63 632.401 1153.3 639.328 1148.06 638.566C1142.36 637.737 1137.69 629.783 1132.58 624.91C1137.52 620.038 1142.39 611.387 1147.46 611.288C1153.53 611.155 1159.76 618.315 1165.89 622.292C1165.76 624.479 1165.63 626.667 1165.53 628.855H1165.49Z" fill="#FFFDD0"/>
<path d="M1103.61 1147.63C1110.81 1156.48 1118.3 1161.75 1117.8 1166.09C1117.14 1171.7 1110.08 1176.53 1105.8 1181.71C1101.26 1177.16 1094 1173.15 1093.01 1167.95C1092.11 1163.31 1098.18 1157.38 1103.61 1147.63Z" fill="#FFFDD0"/>
<path d="M673.86 1146.77C680.324 1156.71 686.886 1162.32 686.256 1167.02C685.594 1172.06 678.235 1176.2 673.761 1180.74C669.386 1176.2 662.061 1172.03 661.497 1167.06C660.967 1162.28 667.397 1156.71 673.827 1146.74L673.86 1146.77Z" fill="#FFFDD0"/>
<path d="M1514.51 958.477C1504.86 964.078 1499.19 969.879 1493.96 969.547C1489.91 969.282 1482.45 959.968 1483.45 957.052C1485.17 951.981 1491.93 946.213 1497.2 945.484C1501.18 944.954 1506.15 951.881 1514.51 958.477Z" fill="#FFFDD0"/>
<path d="M274.701 939.154C281.396 947.274 288.788 952.776 287.893 955.958C286.401 961.328 279.673 965.239 275.132 969.779C271.022 965.603 264.294 961.825 263.631 957.151C263.034 952.942 269.066 947.771 274.701 939.154Z" fill="#FFFDD0"/>
<path d="M1194.59 445.3C1189.39 436.881 1183.62 431.578 1184.62 428.264C1186.11 423.292 1192.31 419.746 1196.48 415.569C1200.13 419.514 1206.82 423.59 1206.66 427.402C1206.46 432.208 1200.69 436.815 1194.56 445.3H1194.59Z" fill="#FFFDD0"/>
<path d="M1674.26 763.554C1668.93 756.03 1662.36 750.429 1663.39 747.446C1665.05 742.573 1671.71 739.392 1676.25 735.514C1679.76 739.657 1686 743.767 1686.03 747.976C1686.09 752.152 1680 756.428 1674.26 763.587V763.554Z" fill="#FFFDD0"/>
<path d="M596.799 426.574C588.513 432.937 584.072 438.97 580.095 438.671C575.753 438.34 569.058 432.44 568.594 428.397C568.163 424.485 574.095 416.531 577.675 416.266C582.448 415.901 587.652 421.271 596.799 426.574Z" fill="#FFFDD0"/>
<path d="M122.667 747.545C113.884 752.914 108.945 758.284 104.769 757.753C100.593 757.223 97.2121 750.76 93.4668 746.882C97.4773 743.369 101.289 737.436 105.565 737.038C109.674 736.673 114.282 742.076 122.667 747.512V747.545Z" fill="#FFFDD0"/>
<path d="M659.873 1363.44C665.342 1371.72 670.513 1376.13 670.314 1380.31C670.148 1383.99 663.387 1390.68 660.636 1390.15C656.029 1389.29 649.93 1384.28 648.969 1380.01C648.206 1376.56 654.139 1371.66 659.873 1363.47V1363.44Z" fill="#FFFDD0"/>
<path d="M1134.01 1378.82C1126.22 1385.21 1121.78 1391.58 1118.1 1391.15C1113.89 1390.65 1108.48 1384.65 1107.26 1380.08C1106.56 1377.46 1112.83 1370.26 1116.47 1369.87C1120.68 1369.4 1125.49 1374.14 1134.01 1378.82Z" fill="#FFFDD0"/>
<path d="M1549.77 886.586C1440.96 875.946 1380.24 929.508 1384.22 1031.1C1382.66 1031.1 1380.83 1031.66 1379.64 1031.03C1274.11 975.413 1172.39 984.926 1074.65 1050.02C977.896 1114.45 922.247 1207.26 893.212 1317.83C892.781 1319.42 892.383 1320.98 891.886 1322.54C891.787 1322.83 891.223 1322.97 889.732 1323.83C885.092 1308.98 880.75 1294.3 875.911 1279.78C835.739 1159.46 760.269 1069.08 643.501 1018.2C565.081 984.031 484.772 983.301 407.578 1026.65C404.363 1028.48 400.717 1029.57 394.652 1032.12C402.01 983.567 384.941 946.014 350.702 915.587C315.867 884.63 275.332 875.946 228.333 887.713C230.222 875.283 232.542 864.81 233.304 854.237C236.785 806.774 219.848 766.569 188.294 732C142.985 682.415 83.8889 659.678 20.0856 646.288C16.8375 645.592 13.5561 645.161 10.308 644.498C7.62324 643.968 4.97168 643.305 0 642.178C4.20936 639.493 6.72837 637.107 9.71137 636.046C157.635 584.109 306.719 571.58 457.295 624.28C501.775 639.858 539.03 667.567 573.467 699.153C628.52 749.666 685.959 796.963 751.387 833.687C762.192 839.752 773.262 845.354 785.625 850.16C727.158 762.758 743.995 666.771 748.602 572.309L753.375 569.823C778.598 601.344 803.788 632.864 830.37 666.108C866.232 653.414 904.581 653.315 943.227 664.915C946.84 666.009 953.833 661.302 957.015 657.458C977.731 632.334 997.849 606.746 1018.07 581.225C1021.42 577.016 1024.33 572.409 1029.7 569.393C1038.65 666.804 1053.07 763.62 993.938 852.613C998.943 850.027 1004.05 847.575 1008.95 844.824C1082.24 803.956 1148.46 753.212 1208.95 695.673C1276.1 631.771 1357.9 605.056 1446.59 594.516C1556.47 581.49 1663.42 596.836 1767.6 633.13C1772.57 634.853 1777.34 637.14 1783.77 639.792C1751.72 648.873 1721.49 656.165 1692.13 666.075C1638.6 684.139 1595.18 715.891 1566.24 765.442C1546.23 799.747 1539.5 836.339 1548.41 875.416C1549.14 878.565 1549.18 881.879 1549.71 886.586H1549.77ZM352.459 819.7C356.337 816.319 360.579 813.668 363.463 809.989C391.139 774.391 425.94 748.141 466.675 729.182C470.354 727.459 472.078 721.526 474.729 717.549C469.592 716.19 463.327 712.246 459.483 713.903C445.363 719.935 430.382 725.868 418.748 735.48C393.823 756.063 370.622 778.733 347.222 801.073C344.339 803.824 343.642 809.69 343.642 814.099C343.642 815.756 348.614 817.38 352.459 819.667V819.7ZM1313.15 711.848C1310.8 713.936 1305.6 717.184 1306.03 718.41C1307.49 722.454 1310.2 727.326 1313.82 729.149C1353.36 748.97 1386.83 776.281 1416.4 808.994C1419.98 812.939 1427.53 813.303 1433.24 815.325C1432.18 809.657 1432.9 802.631 1429.79 798.554C1401.28 761.498 1364.36 734.983 1322.3 715.295C1319.85 714.135 1317.2 713.372 1313.15 711.881V711.848ZM793.613 739.523C805.014 773.563 821.686 784.6 857.747 782.81C846.511 753.577 822.216 744.13 793.613 739.523ZM984.459 740.385C957.181 745.39 931.428 751.356 924.335 783.672C962.683 781.982 975.013 773.231 984.459 740.385ZM224.289 601.675C224.289 601.94 224.289 602.206 224.289 602.438H291.374C291.374 602.173 291.374 601.907 291.374 601.675H224.289Z" fill="url(#paint0_linear_181_6)"/>
<path d="M224.253 601.644H291.337C291.337 601.909 291.337 602.174 291.337 602.406H224.253C224.253 602.141 224.253 601.876 224.253 601.644Z" fill="url(#paint1_linear_181_6)"/>
<path d="M45.7051 907.766C65.7575 895.105 83.7219 883.471 102.051 872.434C105.166 870.578 110.834 869.517 113.618 871.108C127.903 879.295 141.725 888.31 155.513 897.292C163.733 902.629 163.7 908.595 155.38 913.865C142.388 922.118 129.627 930.934 115.938 937.762C111.166 940.148 102.913 939.121 97.7751 936.602C80.6394 928.084 64.1997 918.173 45.7051 907.766Z" fill="#2F2F2F"/>
<path d="M243.91 1072.03C254.848 1075.97 265.52 1079.82 276.557 1083.83C262.504 1102.36 248.451 1100.83 220.146 1078.99C244.474 1057.84 253.356 1055.29 264.228 1066.86C257.168 1068.65 250.44 1070.37 243.943 1072.03H243.91Z" fill="#2F2F2F"/>
<path d="M393.955 1166.62C418.714 1151.51 443.506 1136.43 468.265 1121.32C469.293 1123.01 470.32 1124.7 471.347 1126.39C446.39 1141.17 421.399 1155.95 396.441 1170.7C395.612 1169.34 394.784 1167.98 393.955 1166.62Z" fill="#2F2F2F"/>
<path d="M896.426 1562.2L828.314 1600.75C827.651 1599.62 827.021 1598.5 826.358 1597.37C848.731 1583.95 871.104 1570.52 893.476 1557.1C894.47 1558.82 895.432 1560.51 896.426 1562.24V1562.2Z" fill="#2F2F2F"/>
<path d="M1315.31 1124.37L1259.96 1160.03C1259.23 1158.87 1258.46 1157.71 1257.73 1156.55C1276.1 1144.52 1294.46 1132.49 1312.82 1120.49C1313.65 1121.78 1314.48 1123.07 1315.31 1124.37Z" fill="#2F2F2F"/>
<path d="M1632.67 897.425C1648.44 889.868 1658.98 867.164 1683.71 873.528C1665.21 882.178 1648.94 889.802 1632.67 897.425Z" fill="#2F2F2F"/>
<path d="M815.72 58.4041C837.098 45.312 855.559 35.004 872.894 23.072C886.052 14.0235 896.36 14.2555 909.485 24C925.295 35.7332 943.293 44.4833 964.207 56.78C952.607 63.906 942.498 68.5794 934.211 75.4403C905.641 99.1055 877.667 102.022 848.135 76.8987C840.081 70.0378 829.508 66.0936 815.687 58.3709L815.72 58.4041Z" fill="#2F2F2F"/>
<path d="M819.862 1596.64C841.24 1583.54 859.702 1573.24 877.037 1561.3C890.195 1552.26 900.503 1552.49 913.628 1562.23C929.438 1573.97 947.436 1582.72 968.35 1595.01C956.749 1602.14 946.64 1606.81 938.354 1613.67C909.783 1637.34 881.809 1640.25 852.278 1615.13C844.224 1608.27 833.65 1604.33 819.829 1596.6L819.862 1596.64Z" fill="#2F2F2F"/>
<path d="M624.84 191.313C641.014 180.807 653.642 172.156 666.768 164.367C669.287 162.876 674.424 163.505 677.208 165.096C689.969 172.355 702.332 180.276 717.18 189.424C701.172 198.009 687.384 205.632 673.363 212.791C670.844 214.084 666.701 214.515 664.348 213.288C652.25 207.024 640.484 200.13 624.84 191.313Z" fill="#2F2F2F"/>
<path d="M1153.69 190.982C1113.99 220.415 1112.53 220.448 1072.26 193.17C1096.39 163.605 1115.71 162.942 1153.69 190.982Z" fill="#2F2F2F"/>
<path d="M505.818 291.741C474.629 318.92 469.988 318.854 431.905 291.244C444.434 284.284 456.167 277.555 468.199 271.357C470.684 270.065 475.059 269.501 477.081 270.827C486.561 277.092 495.51 284.118 505.818 291.741Z" fill="#2F2F2F"/>
<path d="M1277.16 291.708C1308.18 265.325 1319.71 265.458 1344.77 291.609C1321.94 316.401 1306.82 316.633 1277.16 291.708Z" fill="#2F2F2F"/>
<defs>
<linearGradient id="paint0_linear_181_6" x1="6.00488" y1="590.892" x2="1717" y2="600.892" gradientUnits="userSpaceOnUse">
<stop stop-color="#C9C9C9"/>
<stop offset="0.515625" stop-color="#404040"/>
<stop offset="1" stop-color="#C9C9C9"/>
</linearGradient>
<linearGradient id="paint1_linear_181_6" x1="224.479" y1="601.665" x2="285.921" y2="615.032" gradientUnits="userSpaceOnUse">
<stop/>
<stop offset="0.515625" stop-color="#404040"/>
<stop offset="1"/>
</linearGradient>
</defs>
</svg>
