<svg width="428" height="426" viewBox="0 0 428 426" fill="none" xmlns="http://www.w3.org/2000/svg">
<g filter="url(#filter0_d_12_17)">
<path d="M215.516 413.97C99.8561 412.58 13.6661 323.56 12.0261 216.99C10.0761 90.42 117.946 12.01 214.126 12C317.586 12 414.006 94.71 415.636 207.97C417.386 330.42 321.146 413.39 215.516 413.96V413.97ZM105.626 147.04V147.23C87.6461 147.23 69.6761 147.23 51.6961 147.23C51.0261 147.23 50.3661 147.25 49.6961 147.24C46.0061 147.19 43.3061 148.73 43.3761 152.63C43.4461 156.53 46.6561 156.57 49.6161 156.56C85.7361 156.53 121.856 156.39 157.966 156.63C164.866 156.68 170.476 154.89 175.846 150.64C187.936 141.06 202.066 136.6 217.286 137.86C243.766 140.05 263.886 152.58 275.236 177.24C278.676 184.72 283.796 187.91 291.966 187.85C322.256 187.6 352.546 187.68 382.836 187.63C384.836 187.63 387.156 188.15 388.736 187.3C390.606 186.31 392.666 184.25 393.016 182.36C393.216 181.25 390.406 179.29 388.646 178.23C387.666 177.64 386.046 178.08 384.716 178.08C354.096 178.13 323.466 178.1 292.846 178.34C287.966 178.38 285.276 176.66 283.276 172.26C273.826 151.49 257.446 137.89 236.086 131.5C212.406 124.42 189.766 127.95 169.436 143.16C166.386 145.44 161.916 146.78 158.056 146.87C140.586 147.26 123.106 147.04 105.636 147.04H105.626ZM105.086 272.7C105.086 272.8 105.086 272.89 105.086 272.99C86.9461 272.99 68.8061 272.99 50.6661 272.99C47.6761 272.99 44.5361 273.26 44.4861 277.08C44.4361 280.73 47.2361 282.1 50.5361 282.35C52.0261 282.47 53.5261 282.39 55.0261 282.39C87.9761 282.39 120.936 282.54 153.886 282.29C160.756 282.24 166.346 284.05 171.836 288.12C189.816 301.46 210.036 304.21 231.536 299.67C247.866 296.23 260.886 287.58 270.746 274.19C274.256 269.43 278.396 267.18 284.646 267.24C315.106 267.54 345.556 267.38 376.016 267.38C377.846 267.38 379.696 267.54 381.506 267.31C385.016 266.86 388.446 265.46 388.416 261.47C388.376 257.02 384.366 257.91 381.546 257.91C348.766 257.91 315.976 258.16 283.196 257.94C274.696 257.88 268.746 261.15 263.666 267.69C257.086 276.16 249.346 283.49 239.036 287.4C216.186 296.07 194.676 293.79 174.916 279.07C169.056 274.71 162.856 272.54 155.506 272.64C138.696 272.88 121.886 272.72 105.076 272.72L105.086 272.7ZM259.316 214.48C256.926 211.71 254.836 208.94 252.406 206.51C242.766 196.88 232.966 187.4 223.326 177.78C213.556 168.03 213.556 167.94 203.876 177.52C192.996 188.28 182.176 199.09 171.396 209.95C169.036 212.32 166.546 214.75 170.076 218.35C183.476 231.99 196.776 245.74 210.116 259.44C212.366 261.75 214.466 261.97 216.896 259.44C229.926 245.9 243.056 232.44 256.106 218.92C257.226 217.76 258.016 216.3 259.326 214.48H259.316ZM282.696 64.44V64.33C289.686 64.33 296.686 64.49 303.666 64.22C305.366 64.16 307.016 62.71 308.696 61.9C307.856 60.24 307.436 57.95 306.086 57.06C304.006 55.69 301.306 54.61 298.856 54.56C287.046 54.32 275.216 54.6 263.406 54.41C257.826 54.32 253.316 56.19 249.706 60.28C245.406 65.14 241.236 70.11 236.986 75.02C231.766 81.05 226.226 81.56 219.906 76.64C215.486 73.2 209.166 73.74 205.476 77.89C201.916 81.88 202.136 88.09 205.966 91.9C210.316 96.23 216.236 96.2 220.806 92.5C222.906 90.8 225.916 89.23 228.476 89.29C235.386 89.44 240.126 86.44 244.126 81.21C247.556 76.72 251.026 72.16 255.116 68.32C257.286 66.28 260.746 64.89 263.746 64.63C270.026 64.08 276.386 64.46 282.706 64.46L282.696 64.44ZM147.236 364.5C142.416 364.5 137.596 364.45 132.776 364.52C129.856 364.56 126.076 363.96 125.976 368.29C125.896 371.95 129.066 373.05 132.226 373.43C134.196 373.67 136.196 373.78 138.186 373.81C146.326 373.91 154.476 373.81 162.606 374.07C167.496 374.23 171.346 372.52 174.476 368.93C178.626 364.17 182.706 359.35 186.856 354.6C192.026 348.68 199.756 348.31 205.306 353.66C209.896 358.09 216.146 358.38 220.556 354.39C224.566 350.75 224.936 345.23 221.456 340.99C217.586 336.28 211.526 335.6 206.236 338.89C204.446 340 201.996 340.94 200.016 340.69C190.696 339.51 182.966 342.11 178.176 350.28C171.056 362.42 161.396 368.11 147.236 364.51V364.5ZM319.306 315.01C332.116 315.01 344.696 315.06 357.276 314.96C359.366 314.94 361.696 314.69 363.456 313.71C364.746 313 366.106 310.81 365.926 309.49C365.746 308.18 363.836 306.84 362.386 306.05C361.326 305.47 359.796 305.68 358.476 305.68C341.536 305.72 324.596 305.77 307.656 305.86C305.506 305.87 303.306 305.88 301.206 306.27C293.656 307.67 288.176 315.54 289.176 323.32C290.186 331.17 297.376 337.39 305.026 337.03C313.006 336.65 319.206 330.14 319.306 322.02C319.326 320.03 319.306 318.04 319.306 315V315.01ZM89.3261 237.38C105.116 237.38 120.906 237.39 136.696 237.38C140.256 237.38 144.396 237.49 144.336 232.56C144.276 227.88 140.326 227.56 136.666 227.51C136.166 227.51 135.666 227.51 135.166 227.51C104.416 227.5 73.6761 227.47 42.9261 227.51C40.9861 227.51 38.7261 227.54 37.1961 228.49C35.7761 229.38 34.2561 231.6 34.396 233.08C34.536 234.53 36.5161 236.14 38.0561 237.03C39.2161 237.69 40.9661 237.4 42.4561 237.4C58.0761 237.42 73.7061 237.41 89.3261 237.4V237.38ZM337.286 111.27C341.936 111.27 346.586 111.35 351.236 111.24C354.566 111.17 357.996 110.49 357.996 106.34C357.996 102.17 354.656 101.54 351.246 101.53C342.606 101.51 333.966 101.34 325.336 101.53C321.866 101.6 319.726 100.68 317.636 97.61C312.226 89.67 302.526 88.55 295.536 94.51C288.886 100.18 288.136 110.66 293.936 116.77C300.146 123.29 311.796 123.87 316.816 116.56C320.526 111.16 324.706 111.11 329.806 111.26C332.296 111.33 334.786 111.27 337.276 111.27H337.286ZM108.806 318.33C97.8361 318.33 87.2061 318.12 76.6061 318.51C74.5661 318.58 72.6161 320.98 70.6261 322.31C72.3161 324.06 73.8461 326.02 75.7661 327.47C76.6661 328.15 78.326 327.92 79.646 327.93C87.9461 328.03 96.2461 328.2 104.546 328.08C107.896 328.03 110.256 328.62 112.556 331.58C117.016 337.32 126.226 338.2 132.406 334.18C138.396 330.28 140.906 322.13 138.066 315.8C135.326 309.69 129.586 305.93 123.156 306.16C115.386 306.44 111.316 311.23 108.826 318.34L108.806 318.33ZM89.4361 101.72C84.9561 101.72 80.4661 101.74 75.9861 101.72C72.2361 101.7 68.9561 103.06 68.896 107.03C68.836 111.29 72.6461 111.43 75.8861 111.45C84.0261 111.49 92.1661 111.58 100.296 111.41C103.386 111.34 105.506 112.08 107.336 114.81C110.856 120.1 116.116 122.15 122.416 121.53C128.456 120.93 134.276 115.46 135.316 109.4C136.576 102.09 132.646 94.86 125.846 91.98C120.026 89.51 111.306 90.87 108.936 96.15C106.186 102.29 101.896 101.97 96.9161 101.76C94.4261 101.65 91.9361 101.74 89.4461 101.74L89.4361 101.72ZM349.546 223.44V223.46C362.356 223.46 375.166 223.41 387.976 223.49C391.386 223.51 394.126 222.82 394.056 218.79C393.996 215.2 391.446 214.03 388.276 214.02C362.986 213.95 337.706 213.89 312.416 213.89C308.866 213.89 305.196 214.82 305.426 219.13C305.636 223.16 309.246 223.47 312.616 223.46C324.926 223.41 337.236 223.44 349.546 223.44ZM78.3161 193.33V193.36C72.3261 193.36 66.326 193.36 60.3361 193.36C53.6761 193.36 47.0161 193.32 40.3561 193.39C37.0161 193.43 33.8161 194.87 34.4261 198.41C34.7561 200.29 38.0961 201.76 40.2461 203.15C40.9561 203.61 42.1961 203.22 43.1961 203.23C57.1861 203.26 71.1661 203.3 85.1561 203.33C94.6461 203.35 104.136 203.4 113.626 203.31C117.376 203.27 121.146 202.15 120.926 197.68C120.736 193.75 117.236 193.28 113.776 193.31C101.956 193.41 90.1361 193.35 78.3161 193.35V193.33ZM342.126 156.49C351.936 156.49 361.746 156.49 371.556 156.49C374.546 156.49 377.656 156.95 380.496 156.27C382.366 155.82 383.836 153.7 385.486 152.33C384.046 150.73 382.716 148.98 381.096 147.59C380.476 147.06 379.176 147.25 378.186 147.25C354.246 147.21 330.306 147.2 306.366 147.16C302.846 147.16 299.676 148.08 299.716 152.12C299.746 156.04 302.956 156.53 306.216 156.52C318.186 156.47 330.156 156.5 342.126 156.5V156.49ZM144.466 64.44V64.39C150.456 64.39 156.556 65.06 162.406 64.17C166.736 63.51 171.526 61.67 174.736 58.81C179.766 54.32 183.706 48.6 187.956 43.27C190.376 40.24 188.806 36.59 184.936 36.69C182.916 36.74 180.486 37.99 179.046 39.47C175.466 43.16 172.616 47.57 168.946 51.15C167.156 52.89 164.216 54.27 161.746 54.36C151.606 54.73 141.446 54.39 131.296 54.64C128.596 54.71 125.656 55.49 123.356 56.84C121.866 57.72 121.346 60.24 120.386 62.02C122.086 62.82 123.766 64.23 125.496 64.31C131.806 64.59 138.136 64.42 144.466 64.42V64.44ZM278.546 364.91C264.086 361.87 251.356 365.12 242.796 378.86C242.446 379.42 241.886 379.83 241.506 380.38C239.946 382.6 237.956 385.5 241.046 387.16C242.836 388.12 246.336 387.11 248.436 385.9C250.446 384.74 251.826 382.29 253.186 380.22C256.206 375.58 260.306 373.81 265.856 374.01C274.326 374.32 282.826 374.06 291.306 373.99C293.126 373.98 295.296 374.32 296.696 373.48C298.756 372.24 300.256 370.08 302.006 368.31C300.036 367.18 298.126 365.24 296.076 365.07C290.456 364.62 284.786 364.91 278.566 364.91H278.546ZM168.306 114.54C168.306 114.54 168.306 114.49 168.306 114.47C171.786 114.47 175.366 114.98 178.696 114.28C180.706 113.86 182.326 111.57 184.126 110.11C182.586 108.42 181.146 105.4 179.486 105.27C172.436 104.73 165.306 104.76 158.256 105.31C156.776 105.43 154.396 108.72 154.526 110.4C154.636 111.89 157.466 113.9 159.416 114.37C162.236 115.05 165.336 114.54 168.316 114.54H168.306ZM218.266 48.65C218.266 48.65 218.326 48.65 218.346 48.65C218.346 46.33 218.936 43.78 218.166 41.74C217.516 40.01 215.426 38.02 213.726 37.75C212.506 37.56 209.806 39.91 209.636 41.35C209.086 46.1 209.006 51 209.576 55.74C209.756 57.22 212.466 59.24 214.186 59.41C215.406 59.53 217.556 57.19 218.096 55.56C218.786 53.46 218.266 50.97 218.266 48.64V48.65ZM218.156 381.46C218.156 381.46 218.106 381.46 218.086 381.46C218.086 379.48 218.606 377.3 217.936 375.57C217.286 373.88 215.436 371.55 214.076 371.53C212.566 371.5 209.896 373.6 209.686 375.05C209.086 379.25 209.086 383.64 209.686 387.84C209.866 389.15 212.776 391.01 214.306 390.9C215.676 390.8 217.336 388.52 218.016 386.86C218.646 385.3 218.156 383.28 218.156 381.46Z" fill="white"/>
<path d="M209.432 345.873C210.953 345.049 212.44 343.632 213.999 343.548C215.99 343.438 217.287 345.2 217.048 347.27C216.798 349.431 215.279 350.981 213.084 350.348C211.657 349.936 210.559 348.363 209.315 347.304C209.354 346.827 209.387 346.35 209.426 345.873L209.432 345.873Z" fill="white"/>
<path d="M247.546 214.81C235.626 226.16 224.216 237.04 213.216 247.52C202.876 237.55 191.556 226.64 179.766 215.28C183.016 211.93 186.086 208.76 189.166 205.61C196.006 198.59 202.926 191.65 209.656 184.54C212.106 181.95 214.076 181.62 216.706 184.25C226.786 194.36 236.966 204.36 247.536 214.82L247.546 214.81Z" fill="white"/>
<path d="M310.306 322.03C310.096 325.18 308.446 327.65 304.776 328.13C301.756 328.53 298.216 325.12 298.266 321.91C298.316 318.3 300.266 315.95 303.876 315.45C307.116 315 310.216 318.14 310.316 322.03H310.306Z" fill="white"/>
<path d="M305.096 112.52C301.316 111.99 299.226 109.67 299.356 106.15C299.466 102.97 301.226 100.32 304.896 100.31C308.716 100.31 310.796 102.87 310.866 106.32C310.936 109.81 308.756 112.09 305.096 112.52Z" fill="white"/>
<path d="M125.406 314.59C126.886 316.99 129.326 319.28 129.606 321.81C129.966 325.04 127.216 327.31 123.826 327.11C120.286 326.9 117.626 324.57 118.456 320.94C118.996 318.58 121.456 316.65 123.066 314.53C123.846 314.55 124.626 314.56 125.406 314.58V314.59Z" fill="white"/>
<path d="M122.076 100.29C123.176 101.84 125.666 103.87 125.996 106.21C126.476 109.59 124.226 112.33 120.416 112.41C116.816 112.48 114.806 109.9 114.696 106.7C114.576 103.21 116.636 100.82 122.076 100.3V100.29Z" fill="white"/>
</g>
<defs>
<filter id="filter0_d_12_17" x="0" y="0" width="427.66" height="425.97" filterUnits="userSpaceOnUse" color-interpolation-filters="sRGB">
<feFlood flood-opacity="0" result="BackgroundImageFix"/>
<feColorMatrix in="SourceAlpha" type="matrix" values="0 0 0 0 0 0 0 0 0 0 0 0 0 0 0 0 0 0 127 0" result="hardAlpha"/>
<feOffset/>
<feGaussianBlur stdDeviation="6"/>
<feColorMatrix type="matrix" values="0 0 0 0 0 0 0 0 0 0.88 0 0 0 0 1 0 0 0 1 0"/>
<feBlend mode="normal" in2="BackgroundImageFix" result="effect1_dropShadow_12_17"/>
<feBlend mode="normal" in="SourceGraphic" in2="effect1_dropShadow_12_17" result="shape"/>
</filter>
</defs>
</svg>
