<svg width="1146" height="1146" viewBox="0 0 1146 1146" fill="none" xmlns="http://www.w3.org/2000/svg">
<circle cx="573" cy="573" r="573" fill="black"/>
<path d="M537.674 289L598.013 327.182L551.173 487.006L490.852 448.824L537.674 289Z" fill="#B0915A"/>
<path d="M466.332 532.51L526.653 570.692L467.718 771.941L407.379 733.759L466.332 532.51Z" fill="#B0915A"/>
<path d="M635.609 373.679C630.992 370.792 625.656 369.281 620.221 369.32H533.681L594.02 407.554H680.56C686.022 407.481 691.392 408.981 696.034 411.878L635.609 373.679Z" fill="#997D4C"/>
<path d="M567.292 532.51L627.613 570.692H526.656L466.334 532.51H567.292Z" fill="#997D4C"/>
<path d="M613.427 448.826L673.766 487.008L627.619 570.695L567.298 532.513L613.427 448.826Z" fill="#AB8E56"/>
<path d="M805.204 434.198C805.048 430.972 804.805 427.747 804.407 424.574V424.277C803.887 420.279 803.182 416.344 802.293 412.474C802.05 411.428 801.703 410.434 801.443 409.388C800.716 406.581 799.936 403.791 799.017 401.072C798.896 400.723 798.827 400.357 798.705 400.008C798.376 399.067 797.926 398.265 797.579 397.271C796.626 394.725 795.604 392.197 794.477 389.756C793.853 388.379 793.178 387.037 792.502 385.694C791.323 383.41 790.093 381.161 788.776 378.964C788.326 378.215 787.979 377.395 787.511 376.663C787.043 375.931 786.419 375.059 785.882 374.257L784.496 372.2C782.763 369.654 780.857 367.144 778.864 364.755L778.777 364.65C776.333 361.741 773.736 358.965 770.997 356.334L770.685 356.003C769.506 354.87 768.207 353.876 766.976 352.795C765.746 351.714 764.325 350.406 762.921 349.308L762.558 348.994C759.97 346.995 757.29 345.112 754.517 343.345L694.039 305.163C696.951 307.011 699.758 309.016 702.444 311.126C703.865 312.242 705.182 313.462 706.534 314.613C707.885 315.763 709.254 316.879 710.519 318.1C713.258 320.73 715.855 323.506 718.3 326.416C720.327 328.839 722.216 331.367 724.018 333.965C724.503 334.645 724.954 335.343 725.422 336.04C726.427 337.557 727.363 339.143 728.298 340.73C729.615 342.927 730.857 345.176 732.024 347.477C732.7 348.802 733.376 350.145 734 351.505C735.143 353.963 736.148 356.491 737.119 359.036C737.587 360.309 738.107 361.547 738.54 362.837C739.476 365.557 740.273 368.347 740.966 371.171C741.226 372.2 741.572 373.193 741.815 374.239C742.723 378.134 743.428 382.074 743.929 386.043C744.362 389.321 744.622 392.633 744.778 395.963C744.778 396.573 744.778 397.184 744.865 397.811C744.969 401.106 744.951 404.436 744.865 407.766C744.865 408.377 744.865 408.987 744.761 409.615C744.57 412.823 744.258 416.065 743.808 419.308C743.808 419.674 743.808 420.058 743.669 420.442C743.149 423.928 742.456 427.415 741.642 431.042C741.503 431.635 741.364 432.21 741.208 432.785C740.411 436.063 739.476 439.323 738.384 442.584C737.777 444.327 737.05 446.193 736.374 448.006C735.698 449.819 734.849 452.12 733.965 454.178C733.272 455.764 732.457 457.351 731.695 458.937C730.43 461.588 729.2 464.168 727.727 466.87L684.075 545.013L674.718 560.216C674.804 560.216 675.012 560.582 675.255 560.913L675.567 561.314L676.364 562.395C676.52 562.622 676.711 562.901 676.901 563.145L677.941 564.644L678.651 565.69C679.05 566.283 679.466 566.946 679.899 567.626L680.696 568.863C681.563 570.258 682.429 571.792 683.469 573.484C683.607 573.745 683.763 574.042 683.919 574.303C684.768 575.802 685.652 577.441 686.519 579.15C686.779 579.656 687.039 580.161 687.299 580.702C688.321 582.759 689.361 584.938 690.383 587.257C690.487 587.519 690.591 587.815 690.712 588.077C691.613 590.169 692.445 592.383 693.329 594.684C693.606 595.469 693.901 596.253 694.178 597.055C694.559 598.119 694.906 599.217 695.27 600.316C695.634 601.414 695.911 602.356 696.206 603.402C696.5 604.448 696.847 605.703 697.159 606.889C697.471 608.074 697.713 609.033 697.973 610.149C698.233 611.265 698.51 612.572 698.753 613.81C698.995 615.048 699.203 616.059 699.411 617.297C699.619 618.535 699.81 619.86 700.001 621.15C700.191 622.44 700.295 623.364 700.416 624.498C700.746 627.479 701.006 630.513 701.092 633.633L761.431 671.816C761.345 668.695 761.085 665.661 760.755 662.68C760.755 662.366 760.755 662.035 760.755 661.721C760.651 660.901 760.513 660.134 760.391 659.315C760.218 658.042 760.028 656.752 759.82 655.497C759.612 654.241 759.386 653.195 759.161 652.01C758.936 650.824 758.659 649.569 758.381 648.366C758.104 647.163 757.844 646.169 757.567 645.106C757.29 644.042 756.943 642.787 756.614 641.619C756.285 640.45 755.99 639.526 755.661 638.515C755.331 637.504 754.95 636.336 754.586 635.272C754.448 634.854 754.309 634.401 754.17 634C754.032 633.599 753.876 633.267 753.72 632.884C752.888 630.582 751.987 628.368 751.103 626.276C750.999 626.014 750.895 625.718 750.774 625.474C749.769 623.138 748.729 620.958 747.707 618.901L746.91 617.349C746.043 615.606 745.177 614.002 744.328 612.503L743.877 611.701C742.889 609.957 741.971 608.458 741.087 607.045L740.862 606.679L740.325 605.843L739.06 603.89L738.332 602.826C737.968 602.286 737.621 601.815 737.309 601.362L736.755 600.595L735.975 599.514L735.663 599.113L735.126 598.415L744.484 583.212L787.996 505.192C788.568 504.163 789.123 503.134 789.729 502.123C790.578 500.502 791.254 498.88 792.034 497.259C792.814 495.638 793.594 494.086 794.287 492.499C794.477 492.098 794.703 491.697 794.876 491.279C795.569 489.64 796.089 487.984 796.713 486.327C797.337 484.671 798.116 482.718 798.723 480.923C798.827 480.557 799 480.208 799.104 479.842C800.04 476.948 800.837 474.018 801.547 471.124C801.686 470.549 801.842 469.974 801.963 469.381C802.085 468.788 802.362 467.847 802.518 467.079C803.107 464.307 803.61 461.535 804.008 458.781C804.008 458.397 804.095 458.031 804.147 457.647C804.441 455.503 804.719 453.376 804.892 451.249C804.996 450.15 805.031 449.052 805.1 447.954L805.204 446.105C805.36 442.775 805.377 439.445 805.204 436.15C805.204 435.453 805.204 434.808 805.204 434.198Z" fill="#B29257"/>
<path d="M701.015 633.562L761.354 671.761H585.553L525.214 633.562H701.015Z" fill="#997D4C"/>
<path d="M851.988 658.302C851.988 655.757 851.884 653.211 851.728 650.683C851.728 649.899 851.728 649.131 851.607 648.364C851.416 645.4 851.156 642.454 850.81 639.525C850.81 639.316 850.81 639.107 850.723 638.897C850.515 637.154 850.221 635.41 849.961 633.667C849.701 631.923 849.441 630.04 849.112 628.245C848.782 626.449 848.418 624.758 848.054 623.136C847.691 621.515 847.344 619.562 846.911 617.784C846.478 616.005 846.027 614.436 845.577 612.763C845.126 611.089 844.658 609.276 844.138 607.532C843.618 605.789 843.064 604.237 842.527 602.598C841.989 600.959 841.608 599.617 841.088 598.17C841.002 597.943 840.898 597.734 840.828 597.507C840.187 595.764 839.494 594.02 838.836 592.381C838.177 590.743 837.623 589.208 836.947 587.657C836.271 586.105 835.456 584.327 834.694 582.67C833.932 581.014 833.325 579.602 832.58 578.085C831.835 576.568 830.847 574.877 830.067 573.273C829.287 571.669 828.542 570.292 827.728 568.845C826.913 567.397 825.908 565.724 824.973 564.189C824.037 562.655 823.5 561.627 822.72 560.389C822.643 560.254 822.556 560.126 822.46 560.005C820.415 556.762 818.284 553.624 816.065 550.556C815.528 549.788 814.939 549.074 814.333 548.324C812.6 546.04 810.867 543.791 809.134 541.611C808.839 541.245 808.579 540.844 808.268 540.496C807.505 539.589 806.708 538.752 805.928 537.846C804.923 536.677 803.918 535.527 802.878 534.359C801.839 533.191 800.504 531.848 799.309 530.628C798.113 529.407 797.194 528.448 796.12 527.42C795.808 527.106 795.514 526.775 795.202 526.478C793.469 524.822 791.736 523.2 789.882 521.631L729.543 483.449C731.674 485.297 733.736 487.25 735.781 489.22C736.855 490.266 737.912 491.365 738.952 492.428C739.992 493.492 741.378 494.904 742.557 496.177C743.735 497.449 744.584 498.461 745.589 499.664C746.594 500.867 747.755 502.157 748.812 503.447C750.591 505.632 752.324 507.864 754.011 510.142C754.583 510.909 755.172 511.624 755.744 512.391C757.939 515.459 760.065 518.603 762.121 521.823C763.005 523.218 763.854 524.665 764.686 526.095C765.517 527.524 766.522 529.111 767.389 530.662C768.255 532.214 768.983 533.644 769.763 535.143C770.543 536.643 771.496 538.299 772.241 539.92C772.986 541.542 773.662 542.989 774.372 544.523C775.083 546.057 775.897 547.801 776.625 549.475C777.353 551.148 777.89 552.648 778.514 554.252C779.138 555.856 779.866 557.617 780.489 559.325C781.113 561.034 781.633 562.812 782.222 564.451C782.811 566.09 783.349 567.711 783.834 569.368C784.319 571.024 784.804 572.855 785.272 574.598C785.74 576.341 786.208 577.945 786.606 579.637C787.005 581.328 787.369 583.124 787.75 584.867C788.131 586.611 788.495 588.354 788.807 590.097C789.119 591.841 789.379 593.584 789.639 595.467C789.899 597.35 790.211 598.954 790.419 600.698C790.8 603.819 791.095 606.974 791.32 610.13C791.32 610.915 791.32 611.699 791.441 612.466C791.58 615.012 791.667 617.54 791.701 620.085C791.701 621.009 791.701 621.933 791.701 622.857C791.701 626.118 791.701 629.378 791.424 632.656C791.181 636.77 790.765 640.85 790.298 644.86C789.951 647.928 789.518 650.997 789.015 654.031C788.859 655.042 788.634 656.053 788.461 657.064C788.097 659.069 787.75 661.092 787.317 663.079C787.126 664.021 786.884 664.945 786.658 665.904C786.191 668.013 785.688 670.14 785.151 672.25C784.839 673.418 784.492 674.569 784.163 675.737C783.643 677.585 783.123 679.433 782.534 681.264C782.101 682.641 781.633 684.018 781.165 685.396C780.697 686.773 780.212 688.22 779.71 689.615C779.207 691.01 778.67 692.37 778.133 693.747C777.596 695.124 777.058 696.502 776.486 697.879C776.175 698.629 775.845 699.361 775.516 700.111C773.523 704.766 771.374 709.351 769.035 713.814C768.775 714.302 768.498 714.773 768.238 715.244C765.823 719.777 763.253 724.205 760.527 728.529L759.868 729.488C756.957 734.021 753.878 738.415 750.632 742.669C750.441 742.93 750.233 743.174 750.043 743.418C746.577 747.917 742.926 752.252 739.091 756.425C738.432 757.14 737.757 757.837 737.098 758.534C735.642 760.086 734.169 761.603 732.662 763.102L730.08 765.613C728.624 766.99 727.151 768.368 725.661 769.71L723.166 771.942C720.376 774.365 717.551 776.736 714.657 778.916C714.553 779.003 714.449 779.055 714.363 779.142C711.538 781.322 708.644 783.396 705.698 785.419L703.341 787.005C700.032 789.22 696.687 791.364 693.256 793.352L692.823 793.596C689.496 795.513 686.117 797.309 682.668 799.035L680.277 800.221C676.811 801.964 673.189 803.516 669.568 804.998L667.835 805.661C664.56 806.951 661.232 808.136 657.888 809.252L655.635 810.002C651.91 811.17 648.132 812.216 644.337 813.14L641.928 813.698C638.462 814.5 634.933 815.197 631.34 815.79C630.786 815.79 630.249 815.999 629.711 816.069C625.795 816.697 621.827 817.15 617.858 817.481C616.946 817.563 616.027 817.632 615.103 817.69C611.031 817.987 606.941 818.179 602.817 818.179H294L354.339 856.361H663.104C667.228 856.361 671.318 856.169 675.39 855.873C676.326 855.873 677.227 855.75 678.145 855.663C682.131 855.332 686.099 854.879 690.016 854.269L691.627 853.972C695.197 853.379 698.715 852.682 702.232 851.88L704.624 851.322C708.436 850.392 712.208 849.346 715.94 848.184L718.175 847.434C721.537 846.342 724.858 845.144 728.139 843.843L729.872 843.18C733.494 841.698 737.063 840.094 740.581 838.403L742.973 837.217C746.438 835.474 749.8 833.73 753.127 831.778L753.56 831.534C757.026 829.546 760.336 827.402 763.646 825.187C764.044 824.926 764.46 824.699 764.842 824.438C765.223 824.176 765.604 823.88 765.985 823.618C768.931 821.578 771.825 819.504 774.65 817.307L774.927 817.115C777.838 814.849 780.663 812.477 783.453 810.054C783.782 809.758 784.128 809.496 784.458 809.217L785.931 807.84C787.438 806.48 788.911 805.103 790.367 803.708C791.233 802.888 792.1 802.069 792.932 801.215C794.456 799.715 795.929 798.181 797.385 796.629C797.922 796.071 798.494 795.514 799.118 794.886C799.239 794.764 799.343 794.607 799.465 794.485C803.288 790.3 806.939 785.959 810.416 781.461L810.832 780.99L810.988 780.746C814.246 776.492 817.33 772.029 820.242 767.566L820.71 766.903C820.774 766.802 820.832 766.697 820.883 766.589C823.638 762.283 826.203 757.872 828.612 753.321C828.785 752.99 828.993 752.694 829.149 752.38C829.305 752.066 829.305 752.031 829.391 751.874C831.702 747.388 833.868 742.814 835.89 738.153C836.063 737.787 836.254 737.456 836.41 737.072C836.565 736.689 836.704 736.323 836.86 735.956C837.432 734.562 837.969 733.167 838.593 731.772C839.217 730.377 839.65 729.07 840.153 727.692C840.655 726.315 841.14 724.851 841.626 723.421C841.955 722.41 842.336 721.416 842.665 720.405L842.977 719.341C843.549 717.51 844.086 715.645 844.606 713.797C844.935 712.646 845.282 711.495 845.577 710.31C846.131 708.2 846.634 706.056 847.119 703.911C847.292 703.092 847.517 702.29 847.708 701.471V701.139C848.141 699.134 848.488 697.112 848.852 695.089C849.025 694.078 849.25 693.102 849.406 692.091C849.909 689.057 850.325 686.006 850.688 682.92C850.948 680.566 851.208 678.23 851.416 675.859C851.572 674.115 851.711 672.372 851.815 670.629C852.005 667.351 852.075 664.09 852.092 660.848C851.988 660.15 851.988 659.226 851.988 658.302Z" fill="url(#paint0_linear_377_2)"/>
<path d="M636.69 289C724.651 289 772.964 385.763 727.649 466.921L683.998 545.064L674.64 560.267C675.905 561.854 699.802 592.138 701.015 633.493H525.214L644.991 416.082C656.826 394.689 643.362 369.235 620.21 369.235H533.67L554.188 289H636.69Z" fill="#F4D78B"/>
<path d="M729.56 483.537C768.463 517.412 794.907 574.197 791.424 632.691C791.181 636.805 790.765 640.885 790.298 644.895C779.259 741.484 697.259 818.266 602.834 818.266H294L449.821 289H537.678L490.89 448.824H613.457L567.328 532.511H466.335L407.417 733.76H607.565C661.198 733.76 707.604 688.43 710.932 632.639C712.491 606.591 702.129 576.586 687.59 558.68L729.56 483.537Z" fill="#F4D78B"/>
<defs>
<linearGradient id="paint0_linear_377_2" x1="294" y1="19140.4" x2="56098" y2="19140.4" gradientUnits="userSpaceOnUse">
<stop offset="0.18" stop-color="#997D4C"/>
<stop offset="0.91" stop-color="#AA8C52"/>
<stop offset="0.98" stop-color="#AC8E53"/>
</linearGradient>
</defs>
</svg>
