<svg width="838" height="754" viewBox="0 0 838 754" fill="none" xmlns="http://www.w3.org/2000/svg">
<mask id="mask0_162_39" style="mask-type:luminance" maskUnits="userSpaceOnUse" x="0" y="0" width="838" height="754">
<path d="M0 605.437V753.538H157.943V605.437C157.943 535.479 214.857 478.506 284.846 478.506V320.574C127.771 320.574 0 448.374 0 605.437ZM339.611 753.538H497.554V157.429H339.611V753.538ZM552.32 158.024C622.263 158.024 679.223 214.95 679.223 284.955V753.584H837.166V284.909C837.166 127.8 709.394 0 552.32 0V158.024V158.024Z" fill="white"/>
</mask>
<g mask="url(#mask0_162_39)">
<path d="M418.56 -418.652L1213.85 376.769L418.56 1172.24L-376.686 376.769L418.56 -418.652Z" fill="url(#paint0_linear_162_39)"/>
</g>
<defs>
<linearGradient id="paint0_linear_162_39" x1="267.537" y1="225.835" x2="799.425" y2="757.605" gradientUnits="userSpaceOnUse">
<stop stop-color="#1DC0CC"/>
<stop offset="0.5" stop-color="#8E15F8"/>
<stop offset="1" stop-color="#E20000"/>
</linearGradient>
</defs>
</svg>
