<svg width="1530" height="1530" viewBox="0 0 1530 1530" fill="none" xmlns="http://www.w3.org/2000/svg">
<circle cx="765" cy="765" r="765" fill="black"/>
<path d="M1005.39 301H1069.37V1052H1005.39V301Z" fill="white"/>
<path d="M492.001 364.95L492.001 301L813.495 301L813.495 364.95L492.001 364.95Z" fill="white"/>
<path d="M896.315 301H960.285V942.957H896.315V301Z" fill="white"/>
<path d="M460 301H523.971V1052H460V301Z" fill="white"/>
<path d="M569.078 410.043H633.049V1052H569.078V410.043Z" fill="white"/>
<path d="M678.147 410.043H742.117V942.957H678.147V410.043Z" fill="white"/>
<path d="M787.226 301H851.196V942.957H787.226V301Z" fill="white"/>
<path d="M569.89 473.993L569.89 410.043L742.118 410.043L742.118 473.993L569.89 473.993Z" fill="white"/>
<path d="M788.058 942.956L788.058 879.006L960.286 879.006L960.286 942.956L788.058 942.956Z" fill="white"/>
<path d="M896.303 942.956L896.303 879.006L960.273 879.006L960.273 942.956L896.303 942.956Z" fill="white"/>
<path d="M678.168 1052L678.168 988.049L1055.43 988.049L1055.43 1052L678.168 1052Z" fill="white"/>
<path fill-rule="evenodd" clip-rule="evenodd" d="M481.171 1121V1216.5L412.042 1121H387V1258.23H412.042V1162.73L481.171 1258.23H506.211V1121H481.171Z" fill="white"/>
<path fill-rule="evenodd" clip-rule="evenodd" d="M636.501 1121V1243.66H567.373V1121H542.331V1258.23H661.543V1121H636.501Z" fill="white"/>
<path fill-rule="evenodd" clip-rule="evenodd" d="M690.441 1121V1258.23H780.985L787.978 1243.66H715.901V1121H690.441Z" fill="white"/>
<path fill-rule="evenodd" clip-rule="evenodd" d="M806.037 1258.23H831.324V1121H806.037V1258.23Z" fill="white"/>
<path fill-rule="evenodd" clip-rule="evenodd" d="M965.231 1121V1216.5L896.102 1121H871.06V1258.23H896.102V1162.73L965.231 1258.23H990.268V1121H965.231Z" fill="white"/>
<path fill-rule="evenodd" clip-rule="evenodd" d="M1111.39 1121L1067.29 1181.43H1044.02V1121H1019.18V1258.23H1044.02V1196H1067.29L1112.78 1258.23H1142L1090.74 1188.63L1140.25 1121H1111.39Z" fill="white"/>
</svg>
