<svg width="1988" height="1988" viewBox="0 0 1988 1988" fill="none" xmlns="http://www.w3.org/2000/svg">
<circle cx="994" cy="994" r="994" fill="black"/>
<path d="M831.531 697.24H798.37H736.98V763.55H798.37V1282.57H864.68V697.24H831.531Z" fill="#F5F5F5"/>
<path d="M1337.02 1078.73C1337.02 938.74 1259.25 855.24 1139.73 855.24C1020.21 855.24 941.62 934.65 941.62 1074.63C941.62 1214.61 1019.39 1290.75 1139.73 1290.75C1234.69 1290.75 1305.91 1235.9 1325.56 1159.77H1251.88C1235.51 1194.97 1201.94 1226.08 1139.73 1226.08C1059.5 1226.08 1018.57 1175.32 1010.39 1102.47H1337.03V1078.73H1337.02ZM1011.2 1039.44C1021.02 969.04 1063.59 919.1 1139.73 919.1C1215.87 919.1 1255.98 968.22 1265.8 1039.44H1011.2Z" fill="#F5F5F5"/>
<path d="M1598.17 855.24C1477.83 855.24 1400.06 934.65 1400.06 1074.63C1400.06 1214.61 1477.83 1290.75 1598.17 1290.75C1718.51 1290.75 1795.46 1217.07 1795.46 1074.63C1795.46 932.19 1717.69 855.24 1598.17 855.24ZM1598.17 1227.72C1512.21 1227.72 1465.55 1160.59 1465.55 1073.82C1465.55 987.05 1512.21 917.46 1598.17 917.46C1684.13 917.46 1729.97 985.41 1729.97 1073.82C1729.97 1162.23 1684.95 1227.72 1598.17 1227.72Z" fill="#F5F5F5"/>
<path d="M537.24 697.24H472.72H402.16L284.91 1039.43H356.32L451.28 760.28H485.66L580.62 1039.43H449.72H356.32L334.21 1102.47H471.01H601.91L663.31 1282.57H736.98L537.24 697.24Z" fill="#F5F5F5"/>
<path d="M201.6 1282.57H272.82L334.21 1102.47H263.31L201.6 1282.57Z" fill="#F5F5F5"/>
<path d="M214.14 1039.43L192.54 1102.47H263.31L284.91 1039.43H214.14Z" fill="#F5F5F5"/>
</svg>
