<svg width="1146" height="1146" viewBox="0 0 1146 1146" fill="none" xmlns="http://www.w3.org/2000/svg">
<circle cx="573" cy="573" r="573" fill="black"/>
<path d="M954.273 792.959L817.875 607.499C803.056 587.347 781.114 575.274 757.747 572.614C752.43 571.995 747.681 568.907 745.019 564.248C742.313 559.589 742.027 553.935 744.165 548.99C753.522 527.414 754.091 502.365 744.024 479.456L651.744 268.522C638.067 237.2 607.148 217 572.999 217C538.853 217 507.934 237.247 494.257 268.522L401.978 479.456C391.956 502.365 392.479 527.414 401.835 548.99C403.972 553.935 403.64 559.589 400.98 564.248C398.273 568.907 393.571 571.995 388.252 572.614C364.885 575.274 342.944 587.347 328.126 607.499L191.726 792.959C171.494 820.478 169.451 857.361 186.501 886.971C203.599 916.535 236.559 933.219 270.469 929.465L499.148 903.988C523.987 901.23 545.407 888.256 559.369 869.339C562.552 865.013 567.634 862.447 572.999 862.447C578.367 862.447 583.402 865.013 586.632 869.339C600.594 888.256 622.014 901.23 646.853 903.988L875.532 929.465C909.442 933.266 942.402 916.582 959.5 886.971C976.548 857.361 974.507 820.478 954.273 792.959ZM461.629 505.93L554.049 294.758C557.376 287.201 564.831 282.305 573.046 282.305C581.264 282.305 588.719 287.201 592.046 294.758L684.468 505.93C687.365 512.584 686.747 520.284 682.757 526.368C678.767 532.451 672.025 536.111 664.711 536.111H481.339C474.072 536.111 467.281 532.451 463.291 526.368C459.302 520.284 458.684 512.584 461.581 505.93H461.629ZM509.073 827.417C505.796 833.929 499.434 838.302 492.214 839.109L263.298 864.586C255.129 865.488 247.15 861.498 243.018 854.367C238.886 847.236 239.409 838.349 244.3 831.696L380.843 646.046C385.165 640.2 392.099 636.874 399.365 637.301C406.632 637.681 413.186 641.721 416.843 648.041L416.985 648.28L508.411 806.744L508.552 806.979C512.209 813.303 512.398 821.002 509.121 827.464L509.073 827.417ZM591.808 755.743C587.912 762.444 580.79 766.628 572.999 766.628C565.258 766.628 558.089 762.494 554.193 755.791L483.951 634.068C480.056 627.368 480.056 619.049 483.951 612.349C487.845 605.645 494.97 601.464 502.758 601.464H643.196C650.937 601.464 658.106 605.551 662.002 612.302C665.897 619.049 665.897 627.321 662.002 634.021L591.808 755.743ZM903.029 854.367C898.898 861.498 890.966 865.538 882.751 864.633L653.834 839.156C646.615 838.349 640.252 833.976 636.975 827.464C633.698 820.955 633.886 813.253 637.543 806.979L637.687 806.744L729.11 648.28L729.252 648.041C732.909 641.721 739.463 637.681 746.73 637.301C753.996 636.921 760.93 640.2 765.253 646.046L901.796 831.696C906.686 838.349 907.16 847.236 903.076 854.367H903.029Z" fill="#E81899"/>
</svg>
